<svg width="443" height="536" viewBox="0 0 443 536" fill="none" xmlns="http://www.w3.org/2000/svg">
<g filter="url(#filter0_dddd)">
<rect x="84" y="54" width="322" height="368" rx="12" fill="#1A1A1A"/>
<rect x="164" y="78" width="80" height="40" rx="8" fill="#313133"/>
<path d="M182.312 103L183.152 100.489H186.98L187.825 103H189.794L186.205 92.8182H183.928L180.343 103H182.312ZM183.649 99.0078L185.026 94.9062H185.106L186.483 99.0078H183.649ZM191.056 105.864H192.855V101.797H192.93C193.213 102.354 193.805 103.134 195.117 103.134C196.917 103.134 198.264 101.707 198.264 99.1918C198.264 96.6463 196.877 95.2642 195.112 95.2642C193.765 95.2642 193.203 96.0746 192.93 96.6264H192.825V95.3636H191.056V105.864ZM192.82 99.1818C192.82 97.7003 193.457 96.7408 194.615 96.7408C195.813 96.7408 196.43 97.7599 196.43 99.1818C196.43 100.614 195.803 101.658 194.615 101.658C193.467 101.658 192.82 100.663 192.82 99.1818ZM199.806 103H201.605V98.5107C201.605 97.5412 202.336 96.8551 203.325 96.8551C203.629 96.8551 204.007 96.9098 204.161 96.9595V95.304C203.997 95.2741 203.713 95.2543 203.514 95.2543C202.639 95.2543 201.909 95.7514 201.63 96.6364H201.551V95.3636H199.806V103ZM205.356 103H207.156V95.3636H205.356V103ZM206.261 94.2798C206.833 94.2798 207.3 93.8423 207.3 93.3054C207.3 92.7635 206.833 92.326 206.261 92.326C205.684 92.326 205.217 92.7635 205.217 93.3054C205.217 93.8423 205.684 94.2798 206.261 94.2798ZM210.806 92.8182H209.007V103H210.806V92.8182Z" fill="#F8F7FA"/>
<path d="M219.75 95.75L224 100.25L228.25 95.75" stroke="#F8F7FA" stroke-width="1.5" stroke-linecap="round" stroke-linejoin="round"/>
<path d="M260.905 103H267.885V101.459H263.45V101.389L265.205 99.6044C267.184 97.7053 267.731 96.7805 267.731 95.6321C267.731 93.9268 266.344 92.679 264.295 92.679C262.277 92.679 260.845 93.9318 260.845 95.8658H262.6C262.6 94.8267 263.256 94.1754 264.271 94.1754C265.24 94.1754 265.961 94.767 265.961 95.7266C265.961 96.5767 265.444 97.1832 264.44 98.2024L260.905 101.668V103ZM273.364 103.194C275.82 103.199 277.286 101.26 277.286 97.919C277.286 94.598 275.81 92.679 273.364 92.679C270.918 92.679 269.446 94.593 269.441 97.919C269.441 101.255 270.908 103.194 273.364 103.194ZM273.364 101.638C272.096 101.638 271.3 100.365 271.305 97.919C271.31 95.4929 272.101 94.2152 273.364 94.2152C274.631 94.2152 275.422 95.4929 275.427 97.919C275.427 100.365 274.636 101.638 273.364 101.638ZM278.938 103H285.918V101.459H281.483V101.389L283.238 99.6044C285.217 97.7053 285.764 96.7805 285.764 95.6321C285.764 93.9268 284.377 92.679 282.329 92.679C280.31 92.679 278.878 93.9318 278.878 95.8658H280.633C280.633 94.8267 281.29 94.1754 282.304 94.1754C283.273 94.1754 283.994 94.767 283.994 95.7266C283.994 96.5767 283.477 97.1832 282.473 98.2024L278.938 101.668V103ZM291.775 92.8182H290.02L287.489 94.4439V96.1342L289.871 94.6129H289.93V103H291.775V92.8182Z" fill="#F8F7FA"/>
<g opacity="0.3">
<path d="M301.75 95.75L306 100.25L310.25 95.75" stroke="#F8F7FA" stroke-width="1.5" stroke-linecap="round" stroke-linejoin="round"/>
</g>
<path d="M125.087 133.545V143H126.731V136.491H126.818L129.431 142.972H130.659L133.272 136.505H133.36V143H135.004V133.545H132.908L130.101 140.396H129.99L127.183 133.545H125.087ZM139.888 143.138C141.965 143.138 143.285 141.675 143.285 139.482C143.285 137.285 141.965 135.817 139.888 135.817C137.81 135.817 136.49 137.285 136.49 139.482C136.49 141.675 137.81 143.138 139.888 143.138ZM139.897 141.8C138.747 141.8 138.184 140.775 138.184 139.478C138.184 138.18 138.747 137.142 139.897 137.142C141.028 137.142 141.591 138.18 141.591 139.478C141.591 140.775 141.028 141.8 139.897 141.8Z" fill="#F8F7FA"/>
<path d="M163.611 134.981H166.533V143H168.232V134.981H171.154V133.545H163.611V134.981ZM176.089 140.018C176.089 141.098 175.318 141.634 174.58 141.634C173.776 141.634 173.241 141.066 173.241 140.165V135.909H171.57V140.424C171.57 142.127 172.539 143.092 173.933 143.092C174.995 143.092 175.743 142.534 176.066 141.74H176.14V143H177.76V135.909H176.089V140.018Z" fill="#F8F7FA"/>
<path d="M200.601 143H202.291L204.188 136.366H204.262L206.155 143H207.844L210.513 133.545H208.671L206.967 140.498H206.884L205.06 133.545H203.385L201.566 140.493H201.478L199.775 133.545H197.933L200.601 143ZM214.042 143.138C215.695 143.138 216.83 142.331 217.126 141.098L215.565 140.923C215.339 141.523 214.785 141.837 214.065 141.837C212.985 141.837 212.269 141.126 212.255 139.912H217.195V139.399C217.195 136.911 215.699 135.817 213.954 135.817C211.923 135.817 210.598 137.308 210.598 139.496C210.598 141.721 211.904 143.138 214.042 143.138ZM212.26 138.785C212.311 137.88 212.98 137.119 213.977 137.119C214.937 137.119 215.584 137.82 215.593 138.785H212.26Z" fill="#F8F7FA"/>
<path d="M236.811 134.981H239.733V143H241.432V134.981H244.354V133.545H236.811V134.981ZM247.406 138.845C247.406 137.82 248.043 137.229 248.938 137.229C249.816 137.229 250.333 137.788 250.333 138.744V143H252.004V138.485C252.004 136.772 251.034 135.817 249.562 135.817C248.472 135.817 247.78 136.311 247.452 137.114H247.369V133.545H245.735V143H247.406V138.845Z" fill="#F8F7FA"/>
<path d="M274.331 143H276.044V138.984H279.973V137.548H276.044V134.981H280.388V133.545H274.331V143ZM281.773 143H283.444V138.831C283.444 137.931 284.123 137.294 285.042 137.294C285.323 137.294 285.674 137.345 285.817 137.391V135.854C285.665 135.826 285.402 135.808 285.217 135.808C284.405 135.808 283.726 136.269 283.467 137.091H283.394V135.909H281.773V143ZM286.928 143H288.599V135.909H286.928V143ZM287.768 134.903C288.299 134.903 288.733 134.496 288.733 133.998C288.733 133.495 288.299 133.088 287.768 133.088C287.232 133.088 286.798 133.495 286.798 133.998C286.798 134.496 287.232 134.903 287.768 134.903Z" fill="#F8F7FA"/>
<path d="M316.403 136.145H318.051C318.018 134.547 316.657 133.416 314.644 133.416C312.659 133.416 311.168 134.533 311.172 136.205C311.172 137.562 312.137 138.342 313.693 138.744L314.768 139.021C315.789 139.279 316.463 139.598 316.467 140.332C316.463 141.14 315.696 141.68 314.579 141.68C313.508 141.68 312.677 141.2 312.608 140.207H310.923C310.992 142.086 312.391 143.143 314.593 143.143C316.86 143.143 318.175 142.012 318.18 140.346C318.175 138.707 316.823 137.959 315.401 137.622L314.515 137.4C313.739 137.216 312.899 136.888 312.908 136.098C312.913 135.387 313.55 134.866 314.621 134.866C315.641 134.866 316.315 135.341 316.403 136.145ZM321.674 143.143C322.786 143.143 323.451 142.621 323.756 142.026H323.811V143H325.418V138.254C325.418 136.38 323.889 135.817 322.537 135.817C321.046 135.817 319.901 136.482 319.532 137.774L321.092 137.996C321.258 137.511 321.729 137.096 322.546 137.096C323.322 137.096 323.746 137.493 323.746 138.19V138.217C323.746 138.697 323.243 138.721 321.992 138.854C320.616 139.002 319.301 139.413 319.301 141.01C319.301 142.404 320.321 143.143 321.674 143.143ZM322.108 141.915C321.41 141.915 320.912 141.597 320.912 140.983C320.912 140.341 321.47 140.073 322.218 139.967C322.657 139.907 323.534 139.796 323.751 139.621V140.456C323.751 141.246 323.114 141.915 322.108 141.915Z" fill="#F8F7FA"/>
<path d="M353.038 136.145H354.686C354.654 134.547 353.292 133.416 351.279 133.416C349.294 133.416 347.803 134.533 347.807 136.205C347.807 137.562 348.772 138.342 350.328 138.744L351.404 139.021C352.424 139.279 353.098 139.598 353.103 140.332C353.098 141.14 352.332 141.68 351.214 141.68C350.143 141.68 349.312 141.2 349.243 140.207H347.558C347.627 142.086 349.026 143.143 351.228 143.143C353.495 143.143 354.811 142.012 354.815 140.346C354.811 138.707 353.458 137.959 352.036 137.622L351.15 137.4C350.374 137.216 349.534 136.888 349.543 136.098C349.548 135.387 350.185 134.866 351.256 134.866C352.276 134.866 352.95 135.341 353.038 136.145ZM360.788 140.018C360.788 141.098 360.017 141.634 359.278 141.634C358.475 141.634 357.939 141.066 357.939 140.165V135.909H356.268V140.424C356.268 142.127 357.238 143.092 358.632 143.092C359.694 143.092 360.442 142.534 360.765 141.74H360.839V143H362.459V135.909H360.788V140.018Z" fill="#F8F7FA"/>
<g opacity="0.4">
<path d="M126.987 183H132.951V181.984H128.557V181.911L130.68 179.639C132.305 177.899 132.785 177.086 132.785 176.038C132.785 174.58 131.603 173.416 129.942 173.416C128.284 173.416 127.024 174.543 127.024 176.205H128.113C128.113 175.129 128.811 174.413 129.905 174.413C130.929 174.413 131.714 175.041 131.714 176.038C131.714 176.911 131.202 177.557 130.108 178.753L126.987 182.169V183ZM137.868 173.416C135.948 173.393 134.71 174.838 134.71 176.574C134.71 178.402 136.058 179.713 137.683 179.713C138.662 179.713 139.493 179.233 140.01 178.457H140.084C140.084 180.784 139.179 182.114 137.72 182.114C136.723 182.114 136.114 181.486 135.911 180.618H134.784C135.006 182.114 136.132 183.129 137.72 183.129C139.844 183.129 141.155 181.246 141.155 177.885C141.155 174.413 139.419 173.435 137.868 173.416ZM137.868 174.432C139.05 174.432 139.918 175.447 139.918 176.555C139.918 177.682 138.994 178.697 137.831 178.697C136.668 178.697 135.818 177.756 135.818 176.574C135.818 175.392 136.705 174.432 137.868 174.432Z" fill="#C9C8CC"/>
</g>
<g opacity="0.4">
<path d="M166.829 183.129C168.662 183.129 170.024 181.98 170.024 180.433C170.024 179.233 169.313 178.36 168.122 178.162V178.088C169.077 177.797 169.673 177.012 169.673 175.946C169.673 174.607 168.616 173.416 166.866 173.416C165.232 173.416 163.875 174.423 163.819 175.909H164.927C164.969 174.967 165.864 174.413 166.848 174.413C167.891 174.413 168.565 175.046 168.565 176.001C168.565 176.999 167.785 177.645 166.663 177.645H165.906V178.661H166.663C168.099 178.661 168.897 179.39 168.897 180.433C168.897 181.435 168.025 182.114 166.811 182.114C165.716 182.114 164.849 181.55 164.779 180.636H163.616C163.685 182.123 164.996 183.129 166.829 183.129ZM174.996 183.129C177.082 183.129 178.283 181.361 178.283 178.273C178.283 175.207 177.064 173.416 174.996 173.416C172.927 173.416 171.709 175.207 171.709 178.273C171.709 181.361 172.909 183.129 174.996 183.129ZM174.996 182.114C173.62 182.114 172.817 180.733 172.817 178.273C172.817 175.817 173.629 174.413 174.996 174.413C176.362 174.413 177.175 175.817 177.175 178.273C177.175 180.733 176.371 182.114 174.996 182.114Z" fill="#C9C8CC"/>
</g>
<g opacity="0.4">
<path d="M204.727 183.129C206.56 183.129 207.922 181.98 207.922 180.433C207.922 179.233 207.211 178.36 206.02 178.162V178.088C206.976 177.797 207.571 177.012 207.571 175.946C207.571 174.607 206.514 173.416 204.764 173.416C203.13 173.416 201.773 174.423 201.718 175.909H202.826C202.867 174.967 203.763 174.413 204.746 174.413C205.789 174.413 206.463 175.046 206.463 176.001C206.463 176.999 205.683 177.645 204.561 177.645H203.804V178.661H204.561C205.997 178.661 206.796 179.39 206.796 180.433C206.796 181.435 205.923 182.114 204.709 182.114C203.615 182.114 202.747 181.55 202.678 180.636H201.514C201.584 182.123 202.895 183.129 204.727 183.129ZM213.134 173.545H211.989L209.626 175.115V176.278L211.934 174.746H211.989V183H213.134V173.545Z" fill="#C9C8CC"/>
</g>
<path d="M245.852 173.545H244.707L242.344 175.115V176.278L244.652 174.746H244.707V183H245.852V173.545Z" fill="#C9C8CC"/>
<rect x="263.429" y="158" width="36.8571" height="40" rx="18.4286" fill="#313133"/>
<path d="M278.232 183H284.713V181.569H280.595V181.504L282.225 179.847C284.062 178.083 284.57 177.225 284.57 176.158C284.57 174.575 283.282 173.416 281.38 173.416C279.506 173.416 278.176 174.58 278.176 176.375H279.806C279.806 175.411 280.415 174.806 281.357 174.806C282.257 174.806 282.927 175.355 282.927 176.246C282.927 177.036 282.447 177.599 281.514 178.545L278.232 181.763V183Z" fill="#F8F7FA"/>
<path d="M318.32 183.129C320.153 183.129 321.515 181.98 321.515 180.433C321.515 179.233 320.804 178.36 319.613 178.162V178.088C320.568 177.797 321.164 177.012 321.164 175.946C321.164 174.607 320.107 173.416 318.357 173.416C316.723 173.416 315.366 174.423 315.31 175.909H316.418C316.46 174.967 317.355 174.413 318.339 174.413C319.382 174.413 320.056 175.046 320.056 176.001C320.056 176.999 319.276 177.645 318.154 177.645H317.397V178.661H318.154C319.59 178.661 320.388 179.39 320.388 180.433C320.388 181.435 319.516 182.114 318.302 182.114C317.208 182.114 316.34 181.55 316.271 180.636H315.107C315.176 182.123 316.488 183.129 318.32 183.129Z" fill="#C9C8CC"/>
<path d="M351.73 181.061H356.18V183H357.27V181.061H358.562V180.045H357.27V173.545H355.885L351.73 180.119V181.061ZM356.18 180.045H352.967V179.972L356.106 175.004H356.18V180.045Z" fill="#C9C8CC"/>
<path d="M133.979 223.129C135.779 223.129 137.099 221.8 137.099 219.99C137.099 218.157 135.825 216.814 134.089 216.814C133.452 216.814 132.834 217.04 132.446 217.349H132.391L132.723 214.561H136.675V213.545H131.763L131.19 218.199L132.261 218.328C132.654 218.047 133.323 217.843 133.905 217.848C135.11 217.857 135.991 218.771 135.991 220.009C135.991 221.223 135.142 222.114 133.979 222.114C133.009 222.114 132.238 221.49 132.151 220.636H131.043C131.112 222.077 132.354 223.129 133.979 223.129Z" fill="#C9C8CC"/>
<path d="M170.919 223.129C172.83 223.152 174.076 221.712 174.076 219.953C174.076 218.125 172.724 216.814 171.103 216.814C170.129 216.814 169.294 217.289 168.777 218.07H168.703C168.707 215.766 169.603 214.432 171.066 214.432C172.064 214.432 172.664 215.06 172.876 215.909H174.002C173.772 214.441 172.654 213.416 171.066 213.416C168.938 213.416 167.632 215.3 167.632 218.642C167.632 222.137 169.368 223.111 170.919 223.129ZM170.919 222.114C169.732 222.114 168.864 221.103 168.869 219.972C168.874 218.841 169.783 217.83 170.956 217.83C172.114 217.83 172.968 218.781 172.968 219.953C172.968 221.153 172.077 222.114 170.919 222.114Z" fill="#C9C8CC"/>
<path d="M205.275 223H206.475L210.686 214.616V213.545H204.629V214.561H209.504V214.635L205.275 223Z" fill="#C9C8CC"/>
<path d="M244.573 223.129C246.461 223.129 247.777 222.026 247.786 220.489C247.777 219.293 246.978 218.277 245.958 218.088V218.033C246.844 217.802 247.426 216.934 247.435 215.928C247.426 214.487 246.216 213.416 244.573 213.416C242.911 213.416 241.702 214.487 241.711 215.928C241.702 216.934 242.283 217.802 243.188 218.033V218.088C242.149 218.277 241.351 219.293 241.36 220.489C241.351 222.026 242.666 223.129 244.573 223.129ZM244.573 222.114C243.276 222.114 242.477 221.449 242.486 220.433C242.477 219.367 243.359 218.605 244.573 218.605C245.769 218.605 246.65 219.367 246.66 220.433C246.65 221.449 245.852 222.114 244.573 222.114ZM244.573 217.626C243.539 217.626 242.81 216.98 242.819 216.001C242.81 215.041 243.511 214.413 244.573 214.413C245.616 214.413 246.318 215.041 246.327 216.001C246.318 216.98 245.589 217.626 244.573 217.626Z" fill="#C9C8CC"/>
<path d="M281.361 213.416C279.441 213.393 278.204 214.838 278.204 216.574C278.204 218.402 279.552 219.713 281.177 219.713C282.155 219.713 282.986 219.233 283.503 218.457H283.577C283.577 220.784 282.672 222.114 281.213 222.114C280.216 222.114 279.607 221.486 279.404 220.618H278.277C278.499 222.114 279.625 223.129 281.213 223.129C283.337 223.129 284.648 221.246 284.648 217.885C284.648 214.413 282.912 213.435 281.361 213.416ZM281.361 214.432C282.543 214.432 283.411 215.447 283.411 216.555C283.411 217.682 282.488 218.697 281.324 218.697C280.161 218.697 279.311 217.756 279.311 216.574C279.311 215.392 280.198 214.432 281.361 214.432Z" fill="#C9C8CC"/>
<path d="M315.504 213.545H314.359L311.996 215.115V216.278L314.304 214.746H314.359V223H315.504V213.545ZM321.307 223.129C323.394 223.129 324.594 221.361 324.594 218.273C324.594 215.207 323.375 213.416 321.307 213.416C319.239 213.416 318.02 215.207 318.02 218.273C318.02 221.361 319.22 223.129 321.307 223.129ZM321.307 222.114C319.931 222.114 319.128 220.733 319.128 218.273C319.128 215.817 319.941 214.413 321.307 214.413C322.674 214.413 323.486 215.817 323.486 218.273C323.486 220.733 322.683 222.114 321.307 222.114Z" fill="#C9C8CC"/>
<path d="M353.403 213.545H352.258L349.894 215.115V216.278L352.202 214.746H352.258V223H353.403V213.545ZM359.446 213.545H358.301L355.937 215.115V216.278L358.245 214.746H358.301V223H359.446V213.545Z" fill="#C9C8CC"/>
<path d="M131.346 253.545H130.201L127.837 255.115V256.278L130.145 254.746H130.201V263H131.346V253.545ZM134.065 263H140.029V261.984H135.634V261.911L137.758 259.639C139.383 257.899 139.863 257.086 139.863 256.038C139.863 254.58 138.681 253.416 137.019 253.416C135.362 253.416 134.102 254.543 134.102 256.205H135.191C135.191 255.129 135.888 254.413 136.982 254.413C138.007 254.413 138.792 255.041 138.792 256.038C138.792 256.911 138.279 257.557 137.185 258.753L134.065 262.169V263Z" fill="#C9C8CC"/>
<path d="M167.999 253.545H166.854L164.491 255.115V256.278L166.799 254.746H166.854V263H167.999V253.545ZM173.913 263.129C175.746 263.129 177.108 261.98 177.108 260.433C177.108 259.233 176.397 258.36 175.206 258.162V258.088C176.161 257.797 176.757 257.012 176.757 255.946C176.757 254.607 175.7 253.416 173.95 253.416C172.316 253.416 170.958 254.423 170.903 255.909H172.011C172.053 254.967 172.948 254.413 173.932 254.413C174.975 254.413 175.649 255.046 175.649 256.001C175.649 256.999 174.869 257.645 173.747 257.645H172.99V258.661H173.747C175.183 258.661 175.981 259.39 175.981 260.433C175.981 261.435 175.109 262.114 173.895 262.114C172.8 262.114 171.933 261.55 171.863 260.636H170.7C170.769 262.123 172.08 263.129 173.913 263.129Z" fill="#C9C8CC"/>
<path d="M204.825 253.545H203.68L201.316 255.115V256.278L203.625 254.746H203.68V263H204.825V253.545ZM207.323 261.061H211.773V263H212.862V261.061H214.155V260.045H212.862V253.545H211.477L207.323 260.119V261.061ZM211.773 260.045H208.56V259.972L211.699 255.004H211.773V260.045Z" fill="#C9C8CC"/>
<path d="M241.898 253.545H240.753L238.389 255.115V256.278L240.697 254.746H240.753V263H241.898V253.545ZM247.571 263.129C249.372 263.129 250.692 261.8 250.692 259.99C250.692 258.157 249.418 256.814 247.682 256.814C247.045 256.814 246.427 257.04 246.039 257.349H245.983L246.316 254.561H250.267V253.545H245.356L244.783 258.199L245.854 258.328C246.246 258.047 246.916 257.843 247.498 257.848C248.702 257.857 249.584 258.771 249.584 260.009C249.584 261.223 248.735 262.114 247.571 262.114C246.602 262.114 245.831 261.49 245.743 260.636H244.635C244.705 262.077 245.946 263.129 247.571 263.129Z" fill="#C9C8CC"/>
<path d="M278.654 253.545H277.509L275.145 255.115V256.278L277.453 254.746H277.509V263H278.654V253.545ZM284.512 263.129C286.423 263.152 287.67 261.712 287.67 259.953C287.67 258.125 286.317 256.814 284.697 256.814C283.723 256.814 282.887 257.289 282.37 258.07H282.296C282.301 255.766 283.196 254.432 284.66 254.432C285.657 254.432 286.257 255.06 286.469 255.909H287.596C287.365 254.441 286.248 253.416 284.66 253.416C282.531 253.416 281.225 255.3 281.225 258.642C281.225 262.137 282.961 263.111 284.512 263.129ZM284.512 262.114C283.326 262.114 282.458 261.103 282.462 259.972C282.467 258.841 283.376 257.83 284.549 257.83C285.708 257.83 286.562 258.781 286.562 259.953C286.562 261.153 285.671 262.114 284.512 262.114Z" fill="#C9C8CC"/>
<path d="M315.853 253.545H314.708L312.345 255.115V256.278L314.653 254.746H314.708V263H315.853V253.545ZM318.868 263H320.068L324.278 254.616V253.545H318.222V254.561H323.097V254.635L318.868 263Z" fill="#C9C8CC"/>
<path d="M352.419 253.545H351.274L348.91 255.115V256.278L351.218 254.746H351.274V263H352.419V253.545ZM358.166 263.129C360.054 263.129 361.37 262.026 361.379 260.489C361.37 259.293 360.571 258.277 359.551 258.088V258.033C360.438 257.802 361.019 256.934 361.028 255.928C361.019 254.487 359.81 253.416 358.166 253.416C356.504 253.416 355.295 254.487 355.304 255.928C355.295 256.934 355.877 257.802 356.781 258.033V258.088C355.743 258.277 354.944 259.293 354.953 260.489C354.944 262.026 356.26 263.129 358.166 263.129ZM358.166 262.114C356.869 262.114 356.07 261.449 356.08 260.433C356.07 259.367 356.952 258.605 358.166 258.605C359.362 258.605 360.244 259.367 360.253 260.433C360.244 261.449 359.445 262.114 358.166 262.114ZM358.166 257.626C357.132 257.626 356.403 256.98 356.412 256.001C356.403 255.041 357.104 254.413 358.166 254.413C359.21 254.413 359.911 255.041 359.921 256.001C359.911 256.98 359.182 257.626 358.166 257.626Z" fill="#C9C8CC"/>
<path d="M131.225 293.545H130.08L127.716 295.115V296.278L130.025 294.746H130.08V303H131.225V293.545ZM136.954 293.416C135.034 293.393 133.796 294.838 133.796 296.574C133.796 298.402 135.144 299.713 136.769 299.713C137.748 299.713 138.579 299.233 139.096 298.457H139.17C139.17 300.784 138.265 302.114 136.806 302.114C135.809 302.114 135.2 301.486 134.997 300.618H133.87C134.092 302.114 135.218 303.129 136.806 303.129C138.93 303.129 140.241 301.246 140.241 297.885C140.241 294.413 138.505 293.435 136.954 293.416ZM136.954 294.432C138.136 294.432 139.004 295.447 139.004 296.555C139.004 297.682 138.08 298.697 136.917 298.697C135.754 298.697 134.904 297.756 134.904 296.574C134.904 295.392 135.791 294.432 136.954 294.432Z" fill="#C9C8CC"/>
<path d="M163.838 303H169.802V301.984H165.407V301.911L167.531 299.639C169.156 297.899 169.636 297.086 169.636 296.038C169.636 294.58 168.454 293.416 166.792 293.416C165.135 293.416 163.875 294.543 163.875 296.205H164.964C164.964 295.129 165.661 294.413 166.755 294.413C167.78 294.413 168.565 295.041 168.565 296.038C168.565 296.911 168.052 297.557 166.958 298.753L163.838 302.169V303ZM174.792 303.129C176.879 303.129 178.079 301.361 178.079 298.273C178.079 295.207 176.861 293.416 174.792 293.416C172.724 293.416 171.506 295.207 171.506 298.273C171.506 301.361 172.706 303.129 174.792 303.129ZM174.792 302.114C173.417 302.114 172.614 300.733 172.614 298.273C172.614 295.817 173.426 294.413 174.792 294.413C176.159 294.413 176.971 295.817 176.971 298.273C176.971 300.733 176.168 302.114 174.792 302.114Z" fill="#C9C8CC"/>
<path d="M201.736 303H207.701V301.984H203.306V301.911L205.429 299.639C207.054 297.899 207.534 297.086 207.534 296.038C207.534 294.58 206.352 293.416 204.691 293.416C203.033 293.416 201.773 294.543 201.773 296.205H202.862C202.862 295.129 203.56 294.413 204.654 294.413C205.678 294.413 206.463 295.041 206.463 296.038C206.463 296.911 205.951 297.557 204.857 298.753L201.736 302.169V303ZM212.931 293.545H211.786L209.422 295.115V296.278L211.731 294.746H211.786V303H212.931V293.545Z" fill="#C9C8CC"/>
<path d="M237.679 303H243.643V301.984H239.248V301.911L241.372 299.639C242.997 297.899 243.477 297.086 243.477 296.038C243.477 294.58 242.295 293.416 240.633 293.416C238.976 293.416 237.716 294.543 237.716 296.205H238.805C238.805 295.129 239.502 294.413 240.597 294.413C241.621 294.413 242.406 295.041 242.406 296.038C242.406 296.911 241.894 297.557 240.8 298.753L237.679 302.169V303ZM245.55 303H251.514V301.984H247.12V301.911L249.243 299.639C250.868 297.899 251.348 297.086 251.348 296.038C251.348 294.58 250.166 293.416 248.505 293.416C246.847 293.416 245.587 294.543 245.587 296.205H246.676C246.676 295.129 247.373 294.413 248.468 294.413C249.492 294.413 250.277 295.041 250.277 296.038C250.277 296.911 249.765 297.557 248.671 298.753L245.55 302.169V303Z" fill="#C9C8CC"/>
<path d="M274.333 303H280.298V301.984H275.903V301.911L278.026 299.639C279.651 297.899 280.131 297.086 280.131 296.038C280.131 294.58 278.95 293.416 277.288 293.416C275.63 293.416 274.37 294.543 274.37 296.205H275.46C275.46 295.129 276.157 294.413 277.251 294.413C278.276 294.413 279.06 295.041 279.06 296.038C279.06 296.911 278.548 297.557 277.454 298.753L274.333 302.169V303ZM285.399 303.129C287.232 303.129 288.593 301.98 288.593 300.433C288.593 299.233 287.883 298.36 286.691 298.162V298.088C287.647 297.797 288.243 297.012 288.243 295.946C288.243 294.607 287.185 293.416 285.436 293.416C283.802 293.416 282.444 294.423 282.389 295.909H283.497C283.538 294.967 284.434 294.413 285.417 294.413C286.461 294.413 287.135 295.046 287.135 296.001C287.135 296.999 286.354 297.645 285.233 297.645H284.476V298.661H285.233C286.668 298.661 287.467 299.39 287.467 300.433C287.467 301.435 286.595 302.114 285.38 302.114C284.286 302.114 283.418 301.55 283.349 300.636H282.186C282.255 302.123 283.566 303.129 285.399 303.129Z" fill="#C9C8CC"/>
<path d="M311.26 303H317.224V301.984H312.83V301.911L314.953 299.639C316.578 297.899 317.058 297.086 317.058 296.038C317.058 294.58 315.876 293.416 314.214 293.416C312.557 293.416 311.297 294.543 311.297 296.205H312.386C312.386 295.129 313.083 294.413 314.178 294.413C315.202 294.413 315.987 295.041 315.987 296.038C315.987 296.911 315.475 297.557 314.381 298.753L311.26 302.169V303ZM318.706 301.061H323.157V303H324.246V301.061H325.539V300.045H324.246V293.545H322.861L318.706 300.119V301.061ZM323.157 300.045H319.944V299.972L323.083 295.004H323.157V300.045Z" fill="#C9C8CC"/>
<path d="M348.232 303H354.196V301.984H349.801V301.911L351.925 299.639C353.55 297.899 354.03 297.086 354.03 296.038C354.03 294.58 352.848 293.416 351.186 293.416C349.529 293.416 348.269 294.543 348.269 296.205H349.358C349.358 295.129 350.055 294.413 351.149 294.413C352.174 294.413 352.959 295.041 352.959 296.038C352.959 296.911 352.446 297.557 351.352 298.753L348.232 302.169V303ZM359.057 303.129C360.858 303.129 362.178 301.8 362.178 299.99C362.178 298.157 360.904 296.814 359.168 296.814C358.531 296.814 357.912 297.04 357.525 297.349H357.469L357.802 294.561H361.753V293.545H356.841L356.269 298.199L357.34 298.328C357.732 298.047 358.402 297.843 358.983 297.848C360.188 297.857 361.07 298.771 361.07 300.009C361.07 301.223 360.221 302.114 359.057 302.114C358.088 302.114 357.317 301.49 357.229 300.636H356.121C356.19 302.077 357.432 303.129 359.057 303.129Z" fill="#C9C8CC"/>
<path d="M126.987 343H132.951V341.984H128.557V341.911L130.68 339.639C132.305 337.899 132.785 337.086 132.785 336.038C132.785 334.58 131.603 333.416 129.942 333.416C128.284 333.416 127.024 334.543 127.024 336.205H128.113C128.113 335.129 128.811 334.413 129.905 334.413C130.929 334.413 131.714 335.041 131.714 336.038C131.714 336.911 131.202 337.557 130.108 338.753L126.987 342.169V343ZM137.997 343.129C139.909 343.152 141.155 341.712 141.155 339.953C141.155 338.125 139.802 336.814 138.182 336.814C137.208 336.814 136.372 337.289 135.855 338.07H135.781C135.786 335.766 136.682 334.432 138.145 334.432C139.142 334.432 139.742 335.06 139.955 335.909H141.081C140.85 334.441 139.733 333.416 138.145 333.416C136.017 333.416 134.71 335.3 134.71 338.642C134.71 342.137 136.446 343.111 137.997 343.129ZM137.997 342.114C136.811 342.114 135.943 341.103 135.948 339.972C135.952 338.841 136.862 337.83 138.034 337.83C139.193 337.83 140.047 338.781 140.047 339.953C140.047 341.153 139.156 342.114 137.997 342.114Z" fill="#C9C8CC"/>
<rect x="152.857" y="318" width="36.8571" height="40" rx="18.4286" fill="#EE4266"/>
<path d="M163.845 343H170.327V341.569H166.209V341.504L167.838 339.847C169.676 338.083 170.184 337.225 170.184 336.158C170.184 334.575 168.896 333.416 166.994 333.416C165.119 333.416 163.79 334.58 163.79 336.375H165.419C165.419 335.411 166.029 334.806 166.97 334.806C167.871 334.806 168.54 335.355 168.54 336.246C168.54 337.036 168.06 337.599 167.127 338.545L163.845 341.763V343ZM172.266 343H174.043L178.059 335.009V333.545H171.619V334.977H176.286V335.041L172.266 343Z" fill="#F8F7FA"/>
<path d="M200.752 343H206.717V341.984H202.322V341.911L204.445 339.639C206.07 337.899 206.55 337.086 206.55 336.038C206.55 334.58 205.369 333.416 203.707 333.416C202.049 333.416 200.789 334.543 200.789 336.205H201.879C201.879 335.129 202.576 334.413 203.67 334.413C204.695 334.413 205.479 335.041 205.479 336.038C205.479 336.911 204.967 337.557 203.873 338.753L200.752 342.169V343ZM211.652 343.129C213.54 343.129 214.855 342.026 214.865 340.489C214.855 339.293 214.057 338.277 213.037 338.088V338.033C213.923 337.802 214.505 336.934 214.514 335.928C214.505 334.487 213.295 333.416 211.652 333.416C209.99 333.416 208.78 334.487 208.789 335.928C208.78 336.934 209.362 337.802 210.267 338.033V338.088C209.228 338.277 208.429 339.293 208.439 340.489C208.429 342.026 209.745 343.129 211.652 343.129ZM211.652 342.114C210.354 342.114 209.556 341.449 209.565 340.433C209.556 339.367 210.438 338.605 211.652 338.605C212.847 338.605 213.729 339.367 213.738 340.433C213.729 341.449 212.93 342.114 211.652 342.114ZM211.652 337.626C210.618 337.626 209.888 336.98 209.897 336.001C209.888 335.041 210.59 334.413 211.652 334.413C212.695 334.413 213.397 335.041 213.406 336.001C213.397 336.98 212.667 337.626 211.652 337.626Z" fill="#C9C8CC"/>
<path d="M237.558 343H243.523V341.984H239.128V341.911L241.251 339.639C242.876 337.899 243.357 337.086 243.357 336.038C243.357 334.58 242.175 333.416 240.513 333.416C238.856 333.416 237.595 334.543 237.595 336.205H238.685C238.685 335.129 239.382 334.413 240.476 334.413C241.501 334.413 242.286 335.041 242.286 336.038C242.286 336.911 241.773 337.557 240.679 338.753L237.558 342.169V343ZM248.439 333.416C246.519 333.393 245.282 334.838 245.282 336.574C245.282 338.402 246.63 339.713 248.255 339.713C249.233 339.713 250.064 339.233 250.581 338.457H250.655C250.655 340.784 249.75 342.114 248.292 342.114C247.294 342.114 246.685 341.486 246.482 340.618H245.356C245.577 342.114 246.704 343.129 248.292 343.129C250.415 343.129 251.726 341.246 251.726 337.885C251.726 334.413 249.99 333.435 248.439 333.416ZM248.439 334.432C249.621 334.432 250.489 335.447 250.489 336.555C250.489 337.682 249.566 338.697 248.402 338.697C247.239 338.697 246.39 337.756 246.39 336.574C246.39 335.392 247.276 334.432 248.439 334.432Z" fill="#C9C8CC"/>
<path d="M277.401 343.129C279.234 343.129 280.595 341.98 280.595 340.433C280.595 339.233 279.884 338.36 278.693 338.162V338.088C279.649 337.797 280.245 337.012 280.245 335.946C280.245 334.607 279.187 333.416 277.438 333.416C275.804 333.416 274.446 334.423 274.391 335.909H275.499C275.54 334.967 276.436 334.413 277.419 334.413C278.463 334.413 279.137 335.046 279.137 336.001C279.137 336.999 278.356 337.645 277.235 337.645H276.478V338.661H277.235C278.67 338.661 279.469 339.39 279.469 340.433C279.469 341.435 278.597 342.114 277.382 342.114C276.288 342.114 275.42 341.55 275.351 340.636H274.188C274.257 342.123 275.568 343.129 277.401 343.129ZM285.567 343.129C287.654 343.129 288.854 341.361 288.854 338.273C288.854 335.207 287.636 333.416 285.567 333.416C283.499 333.416 282.28 335.207 282.28 338.273C282.28 341.361 283.481 343.129 285.567 343.129ZM285.567 342.114C284.192 342.114 283.388 340.733 283.388 338.273C283.388 335.817 284.201 334.413 285.567 334.413C286.934 334.413 287.746 335.817 287.746 338.273C287.746 340.733 286.943 342.114 285.567 342.114Z" fill="#C9C8CC"/>
<g opacity="0.4">
<path d="M319.567 333.545H318.422L316.058 335.115V336.278L318.366 334.746H318.422V343H319.567V333.545Z" fill="#C9C8CC"/>
</g>
<g opacity="0.4">
<path d="M352.186 343H358.151V341.984H353.756V341.911L355.879 339.639C357.504 337.899 357.985 337.086 357.985 336.038C357.985 334.58 356.803 333.416 355.141 333.416C353.483 333.416 352.223 334.543 352.223 336.205H353.313C353.313 335.129 354.01 334.413 355.104 334.413C356.129 334.413 356.913 335.041 356.913 336.038C356.913 336.911 356.401 337.557 355.307 338.753L352.186 342.169V343Z" fill="#C9C8CC"/>
</g>
<g opacity="0.4">
<path d="M134.035 383.129C135.867 383.129 137.229 381.98 137.229 380.433C137.229 379.233 136.518 378.36 135.327 378.162V378.088C136.283 377.797 136.878 377.012 136.878 375.946C136.878 374.607 135.821 373.416 134.072 373.416C132.437 373.416 131.08 374.423 131.025 375.909H132.133C132.174 374.967 133.07 374.413 134.053 374.413C135.096 374.413 135.77 375.046 135.77 376.001C135.77 376.999 134.99 377.645 133.868 377.645H133.111V378.661H133.868C135.304 378.661 136.103 379.39 136.103 380.433C136.103 381.435 135.23 382.114 134.016 382.114C132.922 382.114 132.054 381.55 131.985 380.636H130.822C130.891 382.123 132.202 383.129 134.035 383.129Z" fill="#C9C8CC"/>
</g>
<g opacity="0.4">
<path d="M167.444 381.061H171.894V383H172.983V381.061H174.276V380.045H172.983V373.545H171.598L167.444 380.119V381.061ZM171.894 380.045H168.681V379.972L171.82 375.004H171.894V380.045Z" fill="#C9C8CC"/>
</g>
<g opacity="0.4">
<path d="M207.693 383.129C209.493 383.129 210.814 381.8 210.814 379.99C210.814 378.157 209.54 376.814 207.804 376.814C207.167 376.814 206.548 377.04 206.16 377.349H206.105L206.437 374.561H210.389V373.545H205.477L204.905 378.199L205.976 378.328C206.368 378.047 207.037 377.843 207.619 377.848C208.824 377.857 209.706 378.771 209.706 380.009C209.706 381.223 208.856 382.114 207.693 382.114C206.724 382.114 205.953 381.49 205.865 380.636H204.757C204.826 382.077 206.068 383.129 207.693 383.129Z" fill="#C9C8CC"/>
</g>
<g opacity="0.4">
<path d="M244.633 383.129C246.544 383.152 247.791 381.712 247.791 379.953C247.791 378.125 246.438 376.814 244.818 376.814C243.844 376.814 243.008 377.289 242.491 378.07H242.417C242.422 375.766 243.317 374.432 244.781 374.432C245.778 374.432 246.378 375.06 246.59 375.909H247.717C247.486 374.441 246.369 373.416 244.781 373.416C242.653 373.416 241.346 375.3 241.346 378.642C241.346 382.137 243.082 383.111 244.633 383.129ZM244.633 382.114C243.447 382.114 242.579 381.103 242.583 379.972C242.588 378.841 243.497 377.83 244.67 377.83C245.829 377.83 246.683 378.781 246.683 379.953C246.683 381.153 245.792 382.114 244.633 382.114Z" fill="#C9C8CC"/>
</g>
<g opacity="0.4">
<path d="M278.989 383H280.19L284.4 374.616V373.545H278.343V374.561H283.218V374.635L278.989 383Z" fill="#C9C8CC"/>
</g>
<g opacity="0.4">
<path d="M318.287 383.129C320.176 383.129 321.491 382.026 321.5 380.489C321.491 379.293 320.693 378.277 319.672 378.088V378.033C320.559 377.802 321.14 376.934 321.15 375.928C321.14 374.487 319.931 373.416 318.287 373.416C316.625 373.416 315.416 374.487 315.425 375.928C315.416 376.934 315.998 377.802 316.902 378.033V378.088C315.864 378.277 315.065 379.293 315.074 380.489C315.065 382.026 316.381 383.129 318.287 383.129ZM318.287 382.114C316.99 382.114 316.191 381.449 316.201 380.433C316.191 379.367 317.073 378.605 318.287 378.605C319.483 378.605 320.365 379.367 320.374 380.433C320.365 381.449 319.566 382.114 318.287 382.114ZM318.287 377.626C317.253 377.626 316.524 376.98 316.533 376.001C316.524 375.041 317.226 374.413 318.287 374.413C319.331 374.413 320.032 375.041 320.042 376.001C320.032 376.98 319.303 377.626 318.287 377.626Z" fill="#C9C8CC"/>
</g>
<g opacity="0.4">
<path d="M355.076 373.416C353.155 373.393 351.918 374.838 351.918 376.574C351.918 378.402 353.266 379.713 354.891 379.713C355.87 379.713 356.701 379.233 357.218 378.457H357.291C357.291 380.784 356.387 382.114 354.928 382.114C353.931 382.114 353.321 381.486 353.118 380.618H351.992C352.213 382.114 353.34 383.129 354.928 383.129C357.051 383.129 358.362 381.246 358.362 377.885C358.362 374.413 356.627 373.435 355.076 373.416ZM355.076 374.432C356.257 374.432 357.125 375.447 357.125 376.555C357.125 377.682 356.202 378.697 355.039 378.697C353.875 378.697 353.026 377.756 353.026 376.574C353.026 375.392 353.912 374.432 355.076 374.432Z" fill="#C9C8CC"/>
</g>
</g>
<defs>
<filter id="filter0_dddd" x="0" y="0" width="490" height="536" filterUnits="userSpaceOnUse" color-interpolation-filters="sRGB">
<feFlood flood-opacity="0" result="BackgroundImageFix"/>
<feColorMatrix in="SourceAlpha" type="matrix" values="0 0 0 0 0 0 0 0 0 0 0 0 0 0 0 0 0 0 127 0"/>
<feOffset dy="1"/>
<feGaussianBlur stdDeviation="1.5"/>
<feColorMatrix type="matrix" values="0 0 0 0 0.0745098 0 0 0 0 0.0392157 0 0 0 0 0.180392 0 0 0 0.13 0"/>
<feBlend mode="normal" in2="BackgroundImageFix" result="effect1_dropShadow"/>
<feColorMatrix in="SourceAlpha" type="matrix" values="0 0 0 0 0 0 0 0 0 0 0 0 0 0 0 0 0 0 127 0"/>
<feOffset dy="3"/>
<feGaussianBlur stdDeviation="7"/>
<feColorMatrix type="matrix" values="0 0 0 0 0.0745098 0 0 0 0 0.0392157 0 0 0 0 0.180392 0 0 0 0.03 0"/>
<feBlend mode="normal" in2="effect1_dropShadow" result="effect2_dropShadow"/>
<feColorMatrix in="SourceAlpha" type="matrix" values="0 0 0 0 0 0 0 0 0 0 0 0 0 0 0 0 0 0 127 0"/>
<feOffset dy="8"/>
<feGaussianBlur stdDeviation="16"/>
<feColorMatrix type="matrix" values="0 0 0 0 0.0745098 0 0 0 0 0.0392157 0 0 0 0 0.180392 0 0 0 0.07 0"/>
<feBlend mode="normal" in2="effect2_dropShadow" result="effect3_dropShadow"/>
<feColorMatrix in="SourceAlpha" type="matrix" values="0 0 0 0 0 0 0 0 0 0 0 0 0 0 0 0 0 0 127 0"/>
<feOffset dy="30"/>
<feGaussianBlur stdDeviation="42"/>
<feColorMatrix type="matrix" values="0 0 0 0 0.0745098 0 0 0 0 0.0392157 0 0 0 0 0.180392 0 0 0 0.08 0"/>
<feBlend mode="normal" in2="effect3_dropShadow" result="effect4_dropShadow"/>
<feBlend mode="normal" in="SourceGraphic" in2="effect4_dropShadow" result="shape"/>
</filter>
</defs>
</svg>
