<svg width="282" height="227" viewBox="0 0 282 227" fill="none" xmlns="http://www.w3.org/2000/svg">
<g clip-path="url(#clip0)">
<path d="M280.95 111.496C281.481 173.625 220.576 224.515 144.916 225.161C69.2557 225.807 7.4909 175.965 6.96046 113.835C6.43001 51.705 67.3348 0.81521 142.995 0.169246C218.655 -0.476718 280.42 49.3658 280.95 111.496ZM38.3435 113.567C38.7524 161.464 86.368 199.888 144.696 199.39C203.024 198.892 249.976 159.66 249.567 111.763C249.159 63.8665 201.543 25.442 143.215 25.94C84.8871 26.438 37.9346 65.6698 38.3435 113.567Z" fill="#525252"/>
<path d="M268.115 159.87C277.857 142.689 282.171 123.783 280.658 104.901C279.146 86.0183 271.854 67.7709 259.46 51.8476C247.066 35.9242 229.969 22.8398 209.753 13.8056C189.537 4.77143 166.854 0.0795252 143.806 0.164294L143.84 25.926C161.611 25.8606 179.099 29.4781 194.686 36.4436C210.273 43.409 223.455 53.4972 233.011 65.7742C242.567 78.0513 248.188 92.1202 249.355 106.679C250.521 121.237 247.195 135.814 239.684 149.061L268.115 159.87Z" fill="#2F2F2F"/>
<path d="M268.019 160.039C257.274 178.908 240.377 194.979 219.208 206.465C198.038 217.952 173.425 224.403 148.102 225.103L147.15 199.277C166.656 198.738 185.616 193.768 201.923 184.92C218.23 176.072 231.245 163.693 239.523 149.157L268.019 160.039Z" fill="#3C3C3C"/>
</g>
<defs>
<clipPath id="clip0">
<rect width="282" height="227" fill="white"/>
</clipPath>
</defs>
</svg>
