<svg width="70" height="60" viewBox="0 0 70 60" fill="none" xmlns="http://www.w3.org/2000/svg">
<path d="M0 0L6.36198 53.0089L35 60L63.638 53.0089L70 0H0ZM57.0755 10.7143L56.2005 17.0491L35.1823 23.6518L35.1276 23.6652H55.4531L53.1198 43.2991L35.2188 47.1429L17.2083 43.2321L16.0417 33.3348H24.9557L25.5391 38.4643L35.1276 40.2455L45.099 38.183L45.7734 29.933L15.4583 29.8661V29.8527L15.4219 29.8661L14.7656 23.6652L35.2005 17.4107L36.3854 17.0491H13.9818L12.9245 10.7143H57.0755Z" fill="#20AAE9"/>
<path d="M14 17L13 10.5H57L56.5 17L36.2308 23.5714H44.0192H55.5L53.5 43.5L35.5 47.5L17 43.5L15.5 33H24.9808L25.5 38.5L35 40L45 38L45.5 30L15 30.5L14.5962 23.5714L33.5 17H14Z" fill="white"/>
</svg>
