<svg width="40" height="45" viewBox="0 0 51 41" fill="none" xmlns="http://www.w3.org/2000/svg">
<path d="M45.5357 0H5.46429C2.44754 0 0 1.96763 0 4.39286V36.6071C0 39.0324 2.44754 41 5.46429 41H45.5357C48.5525 41 51 39.0324 51 36.6071V4.39286C51 1.96763 48.5525 0 45.5357 0ZM27.754 31.9763C27.754 35.9665 24.8397 37.7877 20.5935 37.7877C16.7571 37.7877 14.5373 36.1953 13.3989 34.2643L17.3036 32.3699C18.0549 33.4406 18.7379 34.3467 20.3886 34.3467C21.9596 34.3467 22.9614 33.8525 22.9614 31.9214V18.8252H27.754V31.9763V31.9763ZM39.0924 37.7877C34.6413 37.7877 31.7612 36.0855 30.3609 33.8525L34.2656 32.0404C35.2902 33.3857 36.6335 34.3833 38.99 34.3833C40.9708 34.3833 42.2458 33.5871 42.2458 32.4797C42.2458 31.1618 40.948 30.6951 38.7509 29.9172L37.5556 29.5054C34.0949 28.3248 31.8067 26.833 31.8067 23.694C31.8067 20.802 34.5502 18.6056 38.8192 18.6056C41.8701 18.6056 44.0558 19.4567 45.6268 21.6897L41.8929 23.6116C41.0732 22.431 40.1853 21.9643 38.8078 21.9643C37.4076 21.9643 36.5196 22.6781 36.5196 23.6116C36.5196 24.7647 37.4076 25.2315 39.4681 25.9545L40.6634 26.3663C44.7388 27.7665 47.027 29.2033 47.027 32.4248C47.027 35.8842 43.6346 37.7877 39.0924 37.7877V37.7877Z" fill="#F2C94C"/>
</svg>
