<svg width="70" height="60" viewBox="0 0 70 60" fill="none" xmlns="http://www.w3.org/2000/svg">
<path d="M62.5 0H7.5C3.35938 0 0 2.87946 0 6.42857V53.5714C0 57.1205 3.35938 60 7.5 60H62.5C66.6406 60 70 57.1205 70 53.5714V6.42857C70 2.87946 66.6406 0 62.5 0ZM38.0938 46.7946C38.0938 52.6339 34.0937 55.2991 28.2656 55.2991C23 55.2991 19.9531 52.9687 18.3906 50.1429L23.75 47.3705C24.7812 48.9375 25.7188 50.2634 27.9844 50.2634C30.1406 50.2634 31.5156 49.5402 31.5156 46.7143V27.5491H38.0938V46.7946V46.7946ZM53.6562 55.2991C47.5469 55.2991 43.5938 52.808 41.6719 49.5402L47.0312 46.8884C48.4375 48.8571 50.2812 50.317 53.5156 50.317C56.2344 50.317 57.9844 49.1518 57.9844 47.5312C57.9844 45.6027 56.2031 44.9196 53.1875 43.7812L51.5469 43.1786C46.7969 41.4509 43.6562 39.2679 43.6562 34.6741C43.6562 30.442 47.4219 27.2277 53.2812 27.2277C57.4687 27.2277 60.4687 28.4732 62.625 31.7411L57.5 34.5536C56.375 32.8259 55.1562 32.1429 53.2656 32.1429C51.3437 32.1429 50.125 33.1875 50.125 34.5536C50.125 36.2411 51.3438 36.9241 54.1719 37.9821L55.8125 38.5848C61.4063 40.6339 64.5469 42.7366 64.5469 47.4509C64.5469 52.5134 59.8906 55.2991 53.6562 55.2991V55.2991Z" fill="#F2C94C"/>
</svg>
