<svg width="40" height="45" viewBox="0 0 40 50" fill="none" xmlns="http://www.w3.org/2000/svg">
<path d="M19.7687 50C19.6375 50 19.5063 49.9235 19.3875 49.7959L18.1875 48.3418C18.0062 48.1377 18.0938 48.0612 18.1562 48.0229C18.3937 47.8571 18.4438 47.8188 18.7 47.5127C18.725 47.4872 18.7625 47.4999 18.7875 47.5254L19.7125 48.6479C19.7437 48.6862 19.7938 48.6862 19.825 48.6479L23.4375 44.3875C23.4688 44.3493 23.4937 44.2727 23.4937 44.1835V35.6755C23.4937 35.5862 23.475 35.5097 23.4375 35.4714L19.825 31.2238C19.7938 31.1855 19.75 31.1855 19.7125 31.2238L16.1 35.4714C16.0625 35.5097 16.0438 35.599 16.0438 35.6755V44.1835C16.0438 44.26 16.0688 44.3365 16.1 44.3748L17.0875 45.5355C17.625 46.084 17.9562 45.4335 17.9562 44.7957V36.3898C17.9562 36.275 18 36.173 18.0625 36.173H18.5187C18.575 36.173 18.625 36.2622 18.625 36.3898V44.7957C18.625 46.2626 18.2375 47.0917 17.5562 47.0917C17.35 47.0917 17.1813 47.0917 16.725 46.6325L15.775 45.5228C15.5437 45.2422 15.3938 44.7319 15.3938 44.1835V35.6755C15.3938 35.127 15.5375 34.604 15.775 34.3362L19.3875 30.0758C19.6188 29.8079 19.9187 29.8079 20.1437 30.0758L23.7563 34.3362C23.9875 34.6168 24.1375 35.127 24.1375 35.6755V44.1835C24.1375 44.7319 23.9938 45.2549 23.7563 45.5228L20.1437 49.7832C20.0375 49.9235 19.9062 50 19.7687 50V50ZM22.6875 41.6068C22.6875 40.0124 22.1625 39.5914 21.05 39.2853C19.925 38.9792 19.8125 38.8261 19.8125 38.2904C19.8125 37.8439 19.9062 37.2572 20.7375 37.2572C21.4812 37.2572 21.7562 37.5888 21.8687 38.6093C21.8812 38.7113 21.9187 38.7751 21.9688 38.7751H22.4375C22.4688 38.7751 22.4938 38.7496 22.5125 38.7113C22.5313 38.6603 22.5438 38.6093 22.5375 38.5455C22.4625 36.7852 21.8937 35.9689 20.7375 35.9689C19.7062 35.9689 19.0938 36.8618 19.0938 38.3414C19.0938 39.9614 19.7063 40.395 20.6938 40.5991C21.875 40.8415 21.9688 41.1859 21.9688 41.6579C21.9688 42.487 21.6438 42.8314 20.8813 42.8314C19.925 42.8314 19.7125 42.3467 19.6437 41.3772C19.6375 41.2752 19.5938 41.1987 19.5375 41.1987H19.0688C19.0125 41.1987 18.9625 41.2879 18.9625 41.4155C18.9625 42.6528 19.2938 44.1324 20.875 44.1324C22.0312 44.1324 22.6875 43.214 22.6875 41.6068V41.6068ZM26.0938 35.2163C26.0938 35.9944 25.7812 36.6322 25.4 36.6322C25.0187 36.6322 24.7062 35.9944 24.7062 35.2163C24.7062 34.4127 25.0312 33.8004 25.4 33.8004C25.775 33.7877 26.0938 34.4127 26.0938 35.2163ZM25.9813 35.2163C25.9813 34.553 25.7187 34.03 25.3937 34.03C25.075 34.03 24.8125 34.553 24.8125 35.2163C24.8125 35.8796 25.075 36.4153 25.3937 36.4153C25.7187 36.4026 25.9813 35.8668 25.9813 35.2163ZM25.7 36.0071H25.5375C25.5313 35.9306 25.5063 35.5224 25.5063 35.5097C25.4938 35.4204 25.4812 35.3694 25.425 35.3694H25.2875V36.0071H25.1375V34.4127H25.4062C25.5 34.4127 25.6812 34.4127 25.6812 34.8336C25.6812 35.127 25.5875 35.1908 25.5312 35.229C25.6375 35.2418 25.6438 35.3821 25.6625 35.5862C25.6688 35.7138 25.6813 35.9306 25.7 36.0071V36.0071ZM25.525 34.8846C25.525 34.6678 25.45 34.6678 25.4125 34.6678H25.2875V35.1142H25.4062C25.5063 35.1142 25.525 34.9739 25.525 34.8846V34.8846ZM8.58125 16.7079C8.58125 16.3635 8.49375 16.0574 8.35 15.8916L4.51875 11.3889C4.45625 11.3123 4.38125 11.2741 4.30625 11.2613H4.26875C4.19375 11.2613 4.125 11.3123 4.05625 11.3889L0.23125 15.8916C0.0875 16.0574 0 16.3763 0 16.7079L0.00625 28.8257C0.00625 28.9916 0.05 29.1446 0.11875 29.2339C0.1875 29.3232 0.275 29.3232 0.35 29.2339L2.625 26.568C2.76875 26.3894 2.85625 26.0833 2.85625 25.7517V20.0882C2.85625 19.7565 2.94375 19.4376 3.0875 19.2718L4.05625 18.1366C4.13125 18.0473 4.20625 18.009 4.2875 18.009C4.36875 18.009 4.45 18.0473 4.51875 18.1366L5.4875 19.2718C5.63125 19.4376 5.71875 19.7565 5.71875 20.0882V25.7517C5.71875 26.0833 5.80625 26.4022 5.95 26.568L8.225 29.2339C8.29375 29.3232 8.3875 29.3232 8.45625 29.2339C8.525 29.1574 8.56875 28.9916 8.56875 28.8257L8.58125 16.7079ZM29.5312 3.48042V25.9813C29.5312 26.3129 29.4437 26.6318 29.3 26.7976L25.4688 31.3131C25.325 31.4789 25.15 31.4789 25.0063 31.3131L21.175 26.7976C21.0312 26.6318 20.9438 26.3129 20.9438 25.9813V16.9503C20.9438 16.6187 21.0312 16.2998 21.175 16.1339L25.0063 11.6185C25.15 11.4527 25.325 11.4527 25.4688 11.6185L26.425 12.741C26.5312 12.8685 26.6688 12.7027 26.6688 12.4603V0.470104C26.6688 0.112948 26.8563 -0.116653 27.0125 0.0619254L29.2938 2.66406C29.4375 2.81713 29.5312 3.13602 29.5312 3.48042V3.48042ZM26.6562 19.9224C26.6562 19.8331 26.6313 19.7565 26.6 19.7183L25.2875 18.1621C25.25 18.1238 25.2063 18.1238 25.1688 18.1621L23.8563 19.7183C23.8188 19.7565 23.8 19.8331 23.8 19.9224V23.022C23.8 23.1112 23.825 23.1878 23.8563 23.226L25.1688 24.7695C25.2063 24.8077 25.25 24.8077 25.2812 24.7695L26.5938 23.226C26.6313 23.1878 26.65 23.1112 26.65 23.022V19.9224H26.6562ZM39.7687 19.8331C39.9125 19.6672 40 19.3484 40 19.0167V16.8355C40 16.5039 39.9125 16.185 39.7687 16.0191L35.9625 11.5037C35.8188 11.3379 35.6437 11.3379 35.5 11.5037L31.6688 16.0191C31.525 16.185 31.4375 16.5039 31.4375 16.8355V25.8665C31.4375 26.2109 31.525 26.517 31.6688 26.6828L35.475 31.109C35.6125 31.2748 35.7875 31.2748 35.9313 31.109L38.2313 28.4941C38.3875 28.3155 38.3875 27.8563 38.2313 27.6777L34.375 23.1623C34.3 23.073 34.2562 22.9199 34.2562 22.7541V19.9224C34.2562 19.7565 34.3 19.6035 34.375 19.5142L35.575 18.0983C35.6438 18.009 35.7375 18.009 35.8063 18.0983L37.0062 19.5142C37.075 19.6035 37.125 19.7565 37.125 19.9224V22.1418C37.125 22.499 37.3187 22.7286 37.475 22.55L39.7687 19.8331V19.8331ZM34.9375 20.2795C34.9125 20.3178 34.8937 20.3688 34.8937 20.4326V22.1673C34.8937 22.2311 34.9125 22.2949 34.9375 22.3204L35.675 23.1878C35.7 23.226 35.7375 23.226 35.7625 23.1878L36.5 22.3204C36.525 22.2821 36.5438 22.2311 36.5438 22.1673V20.4326C36.5438 20.3688 36.525 20.305 36.5 20.2795L35.7625 19.4121C35.7375 19.3739 35.7 19.3739 35.675 19.4121L34.9375 20.2795ZM19.05 25.8282V16.8483C19.05 16.5166 18.95 16.1977 18.8062 16.0319L14.9875 11.5419C14.8563 11.3889 14.675 11.3634 14.525 11.5419L10.7063 16.0319C10.5625 16.1977 10.4625 16.5039 10.4625 16.8483V25.8282C10.4625 26.1853 10.5812 26.4915 10.7125 26.6445L14.5375 31.1345C14.6875 31.3131 14.8625 31.3003 15 31.1345L18.8125 26.6445C18.925 26.517 19.0063 26.3001 19.0375 26.045C19.0438 25.9813 19.05 25.9047 19.05 25.8282ZM14.4062 9.89647L14.3562 9.96025H14.425L14.4062 9.89647V9.89647ZM19.1688 26.5042L19.1437 26.4149V26.5297L19.1688 26.5042Z" fill="#73AA60"/>
</svg>
