<svg width="70" height="60" viewBox="0 0 70 60" fill="none" xmlns="http://www.w3.org/2000/svg">
<path d="M34.5953 60C34.3656 60 34.1359 59.9082 33.9281 59.7551L31.8281 58.0101C31.5109 57.7652 31.6641 57.6734 31.7734 57.6275C32.1891 57.4285 32.2766 57.3826 32.725 57.0152C32.7688 56.9846 32.8344 56.9999 32.8781 57.0305L34.4969 58.3775C34.5516 58.4234 34.6391 58.4234 34.6938 58.3775L41.0156 53.2651C41.0703 53.2191 41.1141 53.1273 41.1141 53.0202V42.8106C41.1141 42.7034 41.0813 42.6116 41.0156 42.5657L34.6938 37.4686C34.6391 37.4226 34.5625 37.4226 34.4969 37.4686L28.175 42.5657C28.1094 42.6116 28.0766 42.7188 28.0766 42.8106V53.0202C28.0766 53.112 28.1203 53.2038 28.175 53.2498L29.9031 54.6427C30.8437 55.3008 31.4234 54.5202 31.4234 53.7549V43.6678C31.4234 43.53 31.5 43.4076 31.6094 43.4076H32.4078C32.5062 43.4076 32.5938 43.5147 32.5938 43.6678V53.7549C32.5938 55.5151 31.9156 56.5101 30.7234 56.5101C30.3625 56.5101 30.0672 56.5101 29.2688 55.959L27.6062 54.6274C27.2016 54.2906 26.9391 53.6783 26.9391 53.0202V42.8106C26.9391 42.1524 27.1906 41.5248 27.6062 41.2034L33.9281 36.091C34.3328 35.7695 34.8578 35.7695 35.2516 36.091L41.5734 41.2034C41.9781 41.5401 42.2406 42.1524 42.2406 42.8106V53.0202C42.2406 53.6783 41.9891 54.3059 41.5734 54.6274L35.2516 59.7398C35.0656 59.9082 34.8359 60 34.5953 60V60ZM39.7031 49.9282C39.7031 48.0149 38.7844 47.5097 36.8375 47.1424C34.8687 46.775 34.6719 46.5913 34.6719 45.9485C34.6719 45.4127 34.8359 44.7086 36.2906 44.7086C37.5922 44.7086 38.0734 45.1066 38.2703 46.3311C38.2922 46.4536 38.3578 46.5301 38.4453 46.5301H39.2656C39.3203 46.5301 39.3641 46.4995 39.3969 46.4536C39.4297 46.3924 39.4516 46.3311 39.4406 46.2546C39.3094 44.1423 38.3141 43.1626 36.2906 43.1626C34.4859 43.1626 33.4141 44.2341 33.4141 46.0097C33.4141 47.9536 34.4859 48.4741 36.2141 48.719C38.2813 49.0098 38.4453 49.4231 38.4453 49.9894C38.4453 50.9844 37.8766 51.3976 36.5422 51.3976C34.8688 51.3976 34.4969 50.816 34.3766 49.6527C34.3656 49.5302 34.2891 49.4384 34.1906 49.4384H33.3703C33.2719 49.4384 33.1844 49.5455 33.1844 49.6986C33.1844 51.1834 33.7641 52.9589 36.5312 52.9589C38.5547 52.9589 39.7031 51.8568 39.7031 49.9282V49.9282ZM45.6641 42.2595C45.6641 43.1933 45.1172 43.9586 44.45 43.9586C43.7828 43.9586 43.2359 43.1933 43.2359 42.2595C43.2359 41.2952 43.8047 40.5605 44.45 40.5605C45.1062 40.5452 45.6641 41.2952 45.6641 42.2595ZM45.4672 42.2595C45.4672 41.4636 45.0078 40.836 44.4391 40.836C43.8812 40.836 43.4219 41.4636 43.4219 42.2595C43.4219 43.0555 43.8812 43.6984 44.4391 43.6984C45.0078 43.6831 45.4672 43.0402 45.4672 42.2595ZM44.975 43.2086H44.6906C44.6797 43.1167 44.6359 42.6269 44.6359 42.6116C44.6141 42.5045 44.5922 42.4432 44.4937 42.4432H44.2531V43.2086H43.9906V41.2952H44.4609C44.625 41.2952 44.9422 41.2952 44.9422 41.8003C44.9422 42.1524 44.7781 42.2289 44.6797 42.2749C44.8656 42.2902 44.8766 42.4585 44.9094 42.7034C44.9203 42.8565 44.9422 43.1167 44.975 43.2086V43.2086ZM44.6687 41.8616C44.6687 41.6014 44.5375 41.6014 44.4719 41.6014H44.2531V42.1371H44.4609C44.6359 42.1371 44.6687 41.9687 44.6687 41.8616V41.8616ZM15.0172 20.0495C15.0172 19.6363 14.8641 19.2689 14.6125 19.0699L7.90781 13.6667C7.79844 13.5748 7.66719 13.5289 7.53594 13.5136H7.47031C7.33906 13.5136 7.21875 13.5748 7.09844 13.6667L0.404688 19.0699C0.153125 19.2689 0 19.6516 0 20.0495L0.0109375 34.5909C0.0109375 34.7899 0.0875 34.9736 0.207812 35.0807C0.328125 35.1879 0.48125 35.1879 0.6125 35.0807L4.59375 31.8816C4.84531 31.6673 4.99844 31.3 4.99844 30.902V24.1058C4.99844 23.7078 5.15156 23.3252 5.40313 23.1262L7.09844 21.7639C7.22969 21.6567 7.36094 21.6108 7.50312 21.6108C7.64531 21.6108 7.7875 21.6567 7.90781 21.7639L9.60313 23.1262C9.85469 23.3252 10.0078 23.7078 10.0078 24.1058V30.902C10.0078 31.3 10.1609 31.6826 10.4125 31.8816L14.3938 35.0807C14.5141 35.1879 14.6781 35.1879 14.7984 35.0807C14.9188 34.9889 14.9953 34.7899 14.9953 34.5909L15.0172 20.0495ZM51.6797 4.1765V31.1775C51.6797 31.5755 51.5266 31.9581 51.275 32.1571L44.5703 37.5757C44.3188 37.7747 44.0125 37.7747 43.7609 37.5757L37.0562 32.1571C36.8047 31.9581 36.6516 31.5755 36.6516 31.1775V20.3404C36.6516 19.9424 36.8047 19.5597 37.0562 19.3607L43.7609 13.9422C44.0125 13.7432 44.3188 13.7432 44.5703 13.9422L46.2437 15.2892C46.4297 15.4422 46.6703 15.2432 46.6703 14.9524V0.564125C46.6703 0.135537 46.9984 -0.139983 47.2719 0.0743104L51.2641 3.19688C51.5156 3.38056 51.6797 3.76322 51.6797 4.1765V4.1765ZM46.6484 23.9068C46.6484 23.7997 46.6047 23.7078 46.55 23.6619L44.2531 21.7945C44.1875 21.7486 44.1109 21.7486 44.0453 21.7945L41.7484 23.6619C41.6828 23.7078 41.65 23.7997 41.65 23.9068V27.6264C41.65 27.7335 41.6938 27.8253 41.7484 27.8713L44.0453 29.7234C44.1109 29.7693 44.1875 29.7693 44.2422 29.7234L46.5391 27.8713C46.6047 27.8253 46.6375 27.7335 46.6375 27.6264V23.9068H46.6484ZM69.5953 23.7997C69.8469 23.6007 70 23.218 70 22.8201V20.2026C70 19.8046 69.8469 19.422 69.5953 19.223L62.9344 13.8044C62.6828 13.6054 62.3766 13.6054 62.125 13.8044L55.4203 19.223C55.1688 19.422 55.0156 19.8046 55.0156 20.2026V31.0397C55.0156 31.453 55.1688 31.8204 55.4203 32.0194L62.0812 37.3308C62.3219 37.5298 62.6281 37.5298 62.8797 37.3308L66.9047 34.1929C67.1781 33.9786 67.1781 33.4276 66.9047 33.2133L60.1562 27.7947C60.025 27.6876 59.9484 27.5039 59.9484 27.3049V23.9068C59.9484 23.7078 60.025 23.5242 60.1562 23.417L62.2563 21.718C62.3766 21.6108 62.5406 21.6108 62.6609 21.718L64.7609 23.417C64.8812 23.5242 64.9688 23.7078 64.9688 23.9068V26.5702C64.9688 26.9988 65.3078 27.2743 65.5812 27.06L69.5953 23.7997V23.7997ZM61.1406 24.3354C61.0969 24.3813 61.0641 24.4426 61.0641 24.5191V26.6008C61.0641 26.6773 61.0969 26.7539 61.1406 26.7845L62.4312 27.8253C62.475 27.8713 62.5406 27.8713 62.5844 27.8253L63.875 26.7845C63.9188 26.7386 63.9516 26.6773 63.9516 26.6008V24.5191C63.9516 24.4426 63.9188 24.366 63.875 24.3354L62.5844 23.2946C62.5406 23.2486 62.475 23.2486 62.4312 23.2946L61.1406 24.3354ZM33.3375 30.9938V20.2179C33.3375 19.8199 33.1625 19.4373 32.9109 19.2383L26.2281 13.8503C25.9984 13.6667 25.6812 13.636 25.4187 13.8503L18.7359 19.2383C18.4844 19.4373 18.3094 19.8046 18.3094 20.2179V30.9938C18.3094 31.4224 18.5172 31.7898 18.7469 31.9735L25.4406 37.3614C25.7031 37.5757 26.0094 37.5604 26.25 37.3614L32.9219 31.9735C33.1187 31.8204 33.2609 31.5602 33.3156 31.254C33.3266 31.1775 33.3375 31.0857 33.3375 30.9938ZM25.2109 11.8758L25.1234 11.9523H25.2438L25.2109 11.8758V11.8758ZM33.5453 31.8051L33.5016 31.6979V31.8357L33.5453 31.8051Z" fill="#73AA60"/>
</svg>
