<svg width="21" height="26" viewBox="0 0 21 26" fill="none" xmlns="http://www.w3.org/2000/svg">
<path d="M10.3333 25.1875C11.7542 25.1875 12.9167 24.025 12.9167 22.6042H7.75C7.75 24.025 8.9125 25.1875 10.3333 25.1875ZM18.0833 17.4375V10.9792C18.0833 7.01375 15.9779 3.69417 12.2708 2.81583V1.9375C12.2708 0.865417 11.4054 0 10.3333 0C9.26125 0 8.39583 0.865417 8.39583 1.9375V2.81583C4.70167 3.69417 2.58333 7.00083 2.58333 10.9792V17.4375L0 20.0208V21.3125H20.6667V20.0208L18.0833 17.4375ZM15.5 18.7292H5.16667V10.9792C5.16667 7.77583 7.11708 5.16667 10.3333 5.16667C13.5496 5.16667 15.5 7.77583 15.5 10.9792V18.7292Z" fill="#EDEDED"/>
</svg>
