<svg width="70" height="60" viewBox="0 0 52 40" fill="none" xmlns="http://www.w3.org/2000/svg">
<path d="M42.4734 12.9625C41.925 12.8018 41.3766 12.65 40.8281 12.5071C40.9195 12.1768 41.0008 11.8465 41.082 11.5161C42.3313 6.19498 41.5086 1.91842 38.7359 0.507785C36.0648 -0.840357 31.7078 0.561353 27.3 3.93617C26.8633 4.26651 26.4367 4.61471 26.0305 4.9629C25.7562 4.73077 25.4719 4.49864 25.1875 4.27544C20.5664 0.668491 15.9352 -0.849285 13.1625 0.570282C10.5016 1.92735 9.70937 5.95392 10.8266 10.9894C10.9383 11.4893 11.0602 11.9804 11.2023 12.4804C10.5523 12.6411 9.9125 12.8196 9.31328 13.0071C3.88984 14.6588 0 17.2658 0 19.9621C0 22.7477 4.14375 25.5422 9.78047 27.2385C10.2375 27.3724 10.6945 27.5063 11.1617 27.6224C11.0094 28.1581 10.8773 28.6849 10.7555 29.2295C9.68906 34.1846 10.5219 38.1129 13.1828 39.4611C15.925 40.8538 20.5359 39.4253 25.025 35.9702C25.3805 35.6934 25.7359 35.4077 26.0914 35.1042C26.5383 35.4881 27.0055 35.8541 27.4727 36.2112C31.8195 39.4968 36.1156 40.8271 38.7664 39.4789C41.5086 38.0861 42.4023 33.8631 41.2445 28.7206C41.1531 28.3277 41.0516 27.926 40.9398 27.5153C41.2648 27.4349 41.5797 27.3456 41.8945 27.2564C47.7547 25.5511 52 22.7923 52 19.9621C52 17.2569 47.9984 14.632 42.4734 12.9625V12.9625ZM28.732 5.38253C32.5102 2.48982 36.0344 1.35595 37.6391 2.16841C39.3555 3.03444 40.0156 6.53425 38.9391 11.1322C38.868 11.4358 38.7969 11.7304 38.7055 12.025C36.4508 11.5786 34.1656 11.2572 31.8703 11.0786C30.55 9.41802 29.1078 7.82882 27.5438 6.33783C27.9398 6.00749 28.3258 5.69501 28.732 5.38253V5.38253ZM16.9812 24.5958C17.4992 25.3725 18.0273 26.1493 18.5859 26.9082C17.0016 26.7564 15.4273 26.5332 13.8734 26.2386C14.3203 24.9529 14.8789 23.6226 15.5289 22.2656C15.9961 23.0512 16.4734 23.828 16.9812 24.5958V24.5958ZM13.9039 13.8553C15.3664 13.5696 16.9203 13.3375 18.5352 13.1589C17.9969 13.8999 17.4688 14.6588 16.9711 15.4266C16.4734 16.1855 15.9859 16.9623 15.5289 17.7479C14.8891 16.4176 14.3508 15.1141 13.9039 13.8553ZM16.6867 20.0067C17.357 18.7747 18.0883 17.5694 18.8602 16.3819C19.632 15.1945 20.4648 14.0428 21.3383 12.9089C22.8617 12.8107 24.4156 12.7571 26 12.7571C27.5844 12.7571 29.1484 12.8107 30.6617 12.9089C31.525 14.0338 32.3477 15.1856 33.1297 16.3641C33.9117 17.5426 34.643 18.7479 35.3336 19.971C34.6531 21.2031 33.9219 22.4173 33.1398 23.6137C32.368 24.8011 31.5453 25.9529 30.682 27.0957C29.1688 27.1939 27.5945 27.2385 26 27.2385C24.4055 27.2385 22.8617 27.1939 21.3687 27.1135C20.4852 25.9796 19.6523 24.819 18.8703 23.6316C18.0883 22.4441 17.3672 21.2388 16.6867 20.0067ZM35.0289 24.5779C35.5469 23.7923 36.0344 22.9977 36.5117 22.1941C37.1617 23.4887 37.7305 24.8011 38.2281 26.1493C36.6539 26.4618 35.0594 26.7028 33.4547 26.8635C34.0031 26.1136 34.5211 25.3457 35.0289 24.5779ZM36.4914 17.7479C36.0141 16.9623 35.5266 16.1766 35.0187 15.4088C34.5211 14.6499 34.0031 13.8999 33.4648 13.1589C35.1 13.3375 36.6641 13.5785 38.1266 13.8731C37.6594 15.1945 37.1109 16.4801 36.4914 17.7479V17.7479ZM26.0203 7.70383C27.0867 8.72163 28.0922 9.793 29.0266 10.9001C27.0156 10.8197 24.9945 10.8197 22.9836 10.9001C23.9789 9.74836 25.0047 8.67699 26.0203 7.70383ZM14.2391 2.23091C15.9453 1.35595 19.7336 2.60589 23.725 5.71286C23.9789 5.90928 24.2328 6.12356 24.4969 6.33783C22.9227 7.82882 21.4703 9.41802 20.1398 11.0786C17.8445 11.2572 15.5695 11.5697 13.3148 12.0072C13.1828 11.5518 13.0711 11.0876 12.9594 10.6233C12.0047 6.30212 12.6344 3.04336 14.2391 2.23091V2.23091ZM11.7508 25.7654C11.3242 25.6582 10.9078 25.5422 10.4914 25.4172C8.32813 24.819 5.87031 23.8726 4.09297 22.6316C3.06719 22.0066 2.37656 21.0424 2.18359 19.9621C2.18359 18.3283 5.39297 16.2391 10.0242 14.8195C10.6031 14.641 11.1922 14.4803 11.7812 14.3285C12.4719 16.2659 13.3047 18.1676 14.2695 20.0067C13.2945 21.8727 12.4516 23.8012 11.7508 25.7654V25.7654ZM23.593 34.5149C21.9172 35.863 19.9773 36.9344 17.8648 37.6665C16.7375 38.1397 15.4375 38.1843 14.2797 37.7826C12.6648 36.9612 11.9945 33.8096 12.9086 29.5687C13.0203 29.0688 13.1422 28.5688 13.2844 28.0777C15.5594 28.5063 17.8547 28.8009 20.1805 28.9527C21.5211 30.6222 22.9937 32.2204 24.568 33.7203C24.243 33.9971 23.918 34.2649 23.593 34.5149ZM26.0812 32.3454C25.0453 31.3633 24.0094 30.2741 23.0039 29.1045C23.9789 29.1402 24.9844 29.158 26 29.158C27.0461 29.158 28.0719 29.1402 29.0875 29.0955C28.1531 30.2294 27.1477 31.3097 26.0812 32.3454V32.3454ZM39.3555 35.0238C39.2641 36.113 38.6547 37.1308 37.6797 37.8183C36.0648 38.6397 32.6219 37.5683 28.9047 34.7649C28.4781 34.4435 28.0516 34.0953 27.6148 33.7382C29.1687 32.2293 30.6008 30.6312 31.9008 28.9527C34.2266 28.7831 36.5422 28.4706 38.8273 28.0152C38.9289 28.3813 39.0203 28.7473 39.1016 29.1045C39.5992 31.0329 39.6805 33.0418 39.3555 35.0238V35.0238ZM41.2039 25.4261C40.9195 25.5064 40.6352 25.5868 40.3406 25.6582C39.6297 23.7119 38.7563 21.8102 37.7508 19.9621C38.7258 18.1408 39.5484 16.2659 40.2391 14.3463C40.7672 14.4803 41.275 14.6231 41.7625 14.766C46.4953 16.1944 49.8164 18.3193 49.8164 19.9442C49.8164 21.6942 46.2719 23.953 41.2039 25.4261ZM26 24.0869C28.5695 24.0869 30.6516 22.2566 30.6516 19.9978C30.6516 17.739 28.5695 15.9087 26 15.9087C23.4305 15.9087 21.3484 17.739 21.3484 19.9978C21.3484 22.2566 23.4305 24.0869 26 24.0869Z" fill="white"/>
</svg>
