<svg width="70" height="60" viewBox="0 0 70 60" fill="none" xmlns="http://www.w3.org/2000/svg">
<path d="M57.1758 19.4437C56.4375 19.2027 55.6992 18.975 54.9609 18.7607C55.084 18.2652 55.1934 17.7697 55.3027 17.2742C56.9844 9.29247 55.877 2.87764 52.1445 0.761677C48.5488 -1.26054 42.6836 0.84203 36.75 5.90426C36.1621 6.39977 35.5879 6.92206 35.041 7.44436C34.6719 7.09616 34.2891 6.74796 33.9062 6.41316C27.6855 1.00274 21.4512 -1.27393 17.7188 0.855422C14.1367 2.89103 13.0703 8.93088 14.5742 16.4841C14.7246 17.234 14.8887 17.9706 15.0801 18.7205C14.2051 18.9616 13.3437 19.2294 12.5371 19.5107C5.23633 21.9882 0 25.8987 0 29.9432C0 34.1215 5.57813 38.3132 13.166 40.8577C13.7813 41.0586 14.3965 41.2595 15.0254 41.4336C14.8203 42.2371 14.6426 43.0273 14.4785 43.8442C13.043 51.2768 14.1641 57.1694 17.7461 59.1916C21.4375 61.2808 27.6445 59.138 33.6875 53.9553C34.166 53.5401 34.6445 53.1116 35.123 52.6562C35.7246 53.2321 36.3535 53.7812 36.9824 54.3169C42.834 59.2452 48.6172 61.2406 52.1855 59.2184C55.877 57.1292 57.0801 50.7947 55.5215 43.0808C55.3984 42.4916 55.2617 41.8889 55.1113 41.2729C55.5488 41.1524 55.9727 41.0185 56.3965 40.8845C64.2852 38.3266 70 34.1885 70 29.9432C70 25.8853 64.6133 21.948 57.1758 19.4437V19.4437ZM38.6777 8.07379C43.7637 3.73473 48.5078 2.03393 50.668 3.25262C52.9785 4.55165 53.8672 9.80137 52.418 16.6983C52.3223 17.1537 52.2266 17.5956 52.1035 18.0375C49.0684 17.3679 45.9922 16.8858 42.9023 16.618C41.125 14.127 39.1836 11.7432 37.0781 9.50675C37.6113 9.01124 38.1309 8.54251 38.6777 8.07379V8.07379ZM22.8594 36.8937C23.5566 38.0588 24.2676 39.2239 25.0195 40.3622C22.8867 40.1346 20.7676 39.7998 18.6758 39.3578C19.2773 37.4294 20.0293 35.4339 20.9043 33.3983C21.5332 34.5768 22.1758 35.7419 22.8594 36.8937V36.8937ZM18.7168 20.7829C20.6855 20.3544 22.7773 20.0062 24.9512 19.7383C24.2266 20.8499 23.5156 21.9882 22.8457 23.1399C22.1758 24.2783 21.5195 25.4434 20.9043 26.6219C20.043 24.6265 19.3184 22.6712 18.7168 20.7829ZM22.4629 30.0101C23.3652 28.162 24.3496 26.3541 25.3887 24.5729C26.4277 22.7917 27.5488 21.0642 28.7246 19.3634C30.7754 19.216 32.8672 19.1357 35 19.1357C37.1328 19.1357 39.2383 19.216 41.2754 19.3634C42.4375 21.0508 43.5449 22.7784 44.5977 24.5461C45.6504 26.3139 46.6348 28.1218 47.5645 29.9565C46.6484 31.8047 45.6641 33.626 44.6113 35.4205C43.5723 37.2017 42.4648 38.9293 41.3027 40.6435C39.2656 40.7908 37.1465 40.8577 35 40.8577C32.8535 40.8577 30.7754 40.7908 28.7656 40.6703C27.5762 38.9695 26.4551 37.2285 25.4023 35.4473C24.3496 33.6662 23.3789 31.8582 22.4629 30.0101ZM47.1543 36.8669C47.8516 35.6884 48.5078 34.4965 49.1504 33.2912C50.0254 35.233 50.791 37.2017 51.4609 39.2239C49.3418 39.6926 47.1953 40.0542 45.0352 40.2953C45.7734 39.1703 46.4707 38.0186 47.1543 36.8669ZM49.123 26.6219C48.4805 25.4434 47.8242 24.2649 47.1406 23.1132C46.4707 21.9748 45.7734 20.8499 45.0488 19.7383C47.25 20.0062 49.3555 20.3678 51.3242 20.8097C50.6953 22.7917 49.957 24.7202 49.123 26.6219V26.6219ZM35.0273 11.5557C36.4629 13.0824 37.8164 14.6895 39.0742 16.3501C36.3672 16.2296 33.6465 16.2296 30.9395 16.3501C32.2793 14.6225 33.6602 13.0155 35.0273 11.5557ZM19.168 3.34636C21.4648 2.03393 26.5645 3.90883 31.9375 8.5693C32.2793 8.86392 32.6211 9.18533 32.9766 9.50675C30.8574 11.7432 28.9023 14.127 27.1113 16.618C24.0215 16.8858 20.959 17.3545 17.9238 18.0108C17.7461 17.3278 17.5957 16.6314 17.4453 15.935C16.1602 9.45318 17.0078 4.56505 19.168 3.34636V3.34636ZM15.8184 38.648C15.2441 38.4873 14.6836 38.3132 14.123 38.1258C11.2109 37.2285 7.90234 35.8089 5.50977 33.9474C4.12891 33.01 3.19922 31.5636 2.93945 29.9432C2.93945 27.4924 7.25977 24.3586 13.4941 22.2293C14.2734 21.9614 15.0664 21.7204 15.8594 21.4927C16.7891 24.3988 17.9102 27.2513 19.209 30.0101C17.8965 32.8091 16.7617 35.7018 15.8184 38.648V38.648ZM31.7598 51.7723C29.5039 53.7946 26.8926 55.4016 24.0488 56.4998C22.5312 57.2096 20.7813 57.2765 19.2227 56.6739C17.0488 55.4418 16.1465 50.7144 17.377 44.3531C17.5273 43.6031 17.6914 42.8532 17.8828 42.1166C20.9453 42.7594 24.0352 43.2014 27.166 43.429C28.9707 45.9334 30.9531 48.3306 33.0723 50.5804C32.6348 50.9956 32.1973 51.3974 31.7598 51.7723ZM35.1094 48.5181C33.7148 47.0449 32.3203 45.4111 30.9668 43.6567C32.2793 43.7103 33.6328 43.7371 35 43.7371C36.4082 43.7371 37.7891 43.7103 39.1562 43.6433C37.8984 45.3441 36.5449 46.9646 35.1094 48.5181V48.5181ZM52.9785 52.5357C52.8555 54.1695 52.0352 55.6962 50.7227 56.7274C48.5488 57.9595 43.9141 56.3525 38.9102 52.1473C38.3359 51.6652 37.7617 51.1429 37.1738 50.6072C39.2656 48.344 41.1934 45.9468 42.9434 43.429C46.0742 43.1746 49.1914 42.7059 52.2676 42.0229C52.4043 42.5719 52.5273 43.121 52.6367 43.6567C53.3066 46.5494 53.416 49.5626 52.9785 52.5357V52.5357ZM55.4668 38.1391C55.084 38.2597 54.7012 38.3802 54.3047 38.4873C53.3477 35.5679 52.1719 32.7153 50.8184 29.9432C52.1309 27.2112 53.2383 24.3988 54.168 21.5195C54.8789 21.7204 55.5625 21.9347 56.2188 22.1489C62.5898 24.2917 67.0605 27.479 67.0605 29.9164C67.0605 32.5412 62.2891 35.9294 55.4668 38.1391ZM35 36.1303C38.459 36.1303 41.2617 33.3849 41.2617 29.9967C41.2617 26.6085 38.459 23.8631 35 23.8631C31.541 23.8631 28.7383 26.6085 28.7383 29.9967C28.7383 33.3849 31.541 36.1303 35 36.1303Z" fill="#50BBD7"/>
</svg>
