<svg width="40" height="45" viewBox="0 0 40 50" fill="none" xmlns="http://www.w3.org/2000/svg">
<path d="M32.6719 16.2031C32.25 16.0022 31.8281 15.8125 31.4062 15.6339C31.4766 15.221 31.5391 14.8081 31.6016 14.3952C32.5625 7.74373 31.9297 2.39803 29.7969 0.634731C27.7422 -1.05045 24.3906 0.701692 21 4.92022C20.6641 5.33314 20.3359 5.76839 20.0234 6.20363C19.8125 5.91347 19.5937 5.6233 19.375 5.3443C15.8203 0.835613 12.2578 -1.06161 10.125 0.712852C8.07813 2.40919 7.46875 7.4424 8.32812 13.7367C8.41406 14.3617 8.50781 14.9755 8.61719 15.6004C8.11719 15.8013 7.625 16.0245 7.16406 16.2589C2.99219 18.3235 0 21.5823 0 24.9526C0 28.4346 3.1875 31.9277 7.52344 34.0481C7.875 34.2155 8.22656 34.3829 8.58594 34.528C8.46875 35.1976 8.36719 35.8561 8.27344 36.5368C7.45313 42.7307 8.09375 47.6411 10.1406 49.3263C12.25 51.0673 15.7969 49.2817 19.25 44.9627C19.5234 44.6168 19.7969 44.2596 20.0703 43.8802C20.4141 44.3601 20.7734 44.8176 21.1328 45.264C24.4766 49.371 27.7813 51.0338 29.8203 49.3486C31.9297 47.6077 32.6172 42.3289 31.7266 35.9007C31.6563 35.4097 31.5781 34.9075 31.4922 34.3941C31.7422 34.2936 31.9844 34.182 32.2266 34.0704C36.7344 31.9389 40 28.4904 40 24.9526C40 21.5711 36.9219 18.29 32.6719 16.2031V16.2031ZM22.1016 6.72816C25.0078 3.11228 27.7188 1.69494 28.9531 2.71051C30.2734 3.79304 30.7812 8.16781 29.9531 13.9153C29.8984 14.2947 29.8438 14.663 29.7734 15.0313C28.0391 14.4733 26.2812 14.0715 24.5156 13.8483C23.5 11.7725 22.3906 9.78603 21.1875 7.92229C21.4922 7.50936 21.7891 7.11876 22.1016 6.72816V6.72816ZM13.0625 30.7447C13.4609 31.7157 13.8672 32.6866 14.2969 33.6352C13.0781 33.4455 11.8672 33.1665 10.6719 32.7982C11.0156 31.1911 11.4453 29.5283 11.9453 27.8319C12.3047 28.814 12.6719 29.785 13.0625 30.7447V30.7447ZM10.6953 17.3191C11.8203 16.962 13.0156 16.6718 14.2578 16.4486C13.8437 17.3749 13.4375 18.3235 13.0547 19.2833C12.6719 20.2319 12.2969 21.2028 11.9453 22.1849C11.4531 20.5221 11.0391 18.8927 10.6953 17.3191ZM12.8359 25.0084C13.3516 23.4683 13.9141 21.9617 14.5078 20.4774C15.1016 18.9931 15.7422 17.5535 16.4141 16.1361C17.5859 16.0134 18.7812 15.9464 20 15.9464C21.2188 15.9464 22.4219 16.0134 23.5859 16.1361C24.25 17.5423 24.8828 18.982 25.4844 20.4551C26.0859 21.9282 26.6484 23.4349 27.1797 24.9638C26.6562 26.5039 26.0937 28.0217 25.4922 29.5171C24.8984 31.0014 24.2656 32.4411 23.6016 33.8696C22.4375 33.9923 21.2266 34.0481 20 34.0481C18.7734 34.0481 17.5859 33.9923 16.4375 33.8919C15.7578 32.4745 15.1172 31.0237 14.5156 29.5394C13.9141 28.0551 13.3594 26.5485 12.8359 25.0084ZM26.9453 30.7224C27.3437 29.7403 27.7188 28.7471 28.0859 27.7427C28.5859 29.3609 29.0234 31.0014 29.4062 32.6866C28.1953 33.0772 26.9687 33.3785 25.7344 33.5794C26.1562 32.6419 26.5547 31.6822 26.9453 30.7224ZM28.0703 22.1849C27.7031 21.2028 27.3281 20.2207 26.9375 19.261C26.5547 18.3124 26.1563 17.3749 25.7422 16.4486C27 16.6718 28.2031 16.9731 29.3281 17.3414C28.9687 18.9931 28.5469 20.6002 28.0703 22.1849V22.1849ZM20.0156 9.62979C20.8359 10.902 21.6094 12.2413 22.3281 13.6251C20.7812 13.5247 19.2266 13.5247 17.6797 13.6251C18.4453 12.1855 19.2344 10.8462 20.0156 9.62979ZM10.9531 2.78863C12.2656 1.69494 15.1797 3.25736 18.25 7.14108C18.4453 7.3866 18.6406 7.65445 18.8437 7.92229C17.6328 9.78603 16.5156 11.7725 15.4922 13.8483C13.7266 14.0715 11.9766 14.4621 10.2422 15.009C10.1406 14.4398 10.0547 13.8595 9.96875 13.2791C9.23437 7.87765 9.71875 3.8042 10.9531 2.78863V2.78863ZM9.03906 32.2067C8.71094 32.0728 8.39063 31.9277 8.07031 31.7715C6.40625 31.0237 4.51562 29.8408 3.14844 28.2895C2.35937 27.5083 1.82812 26.303 1.67969 24.9526C1.67969 22.9103 4.14844 20.2989 7.71094 18.5244C8.15625 18.3012 8.60937 18.1003 9.0625 17.9106C9.59375 20.3323 10.2344 22.7094 10.9766 25.0084C10.2266 27.3409 9.57812 29.7515 9.03906 32.2067V32.2067ZM18.1484 43.1436C16.8594 44.8288 15.3672 46.168 13.7422 47.0831C12.875 47.6746 11.875 47.7304 10.9844 47.2282C9.74219 46.2015 9.22656 42.262 9.92969 36.9609C10.0156 36.3359 10.1094 35.711 10.2188 35.0972C11.9688 35.6329 13.7344 36.0011 15.5234 36.1909C16.5547 38.2778 17.6875 40.2755 18.8984 42.1504C18.6484 42.4963 18.3984 42.8311 18.1484 43.1436ZM20.0625 40.4317C19.2656 39.2041 18.4687 37.8426 17.6953 36.3806C18.4453 36.4252 19.2188 36.4476 20 36.4476C20.8047 36.4476 21.5937 36.4252 22.375 36.3694C21.6562 37.7868 20.8828 39.1371 20.0625 40.4317V40.4317ZM30.2734 43.7797C30.2031 45.1413 29.7344 46.4135 28.9844 47.2729C27.7422 48.2996 25.0938 46.9604 22.2344 43.4561C21.9063 43.0543 21.5781 42.6191 21.2422 42.1727C22.4375 40.2866 23.5391 38.289 24.5391 36.1909C26.3281 35.9788 28.1094 35.5882 29.8672 35.0191C29.9453 35.4766 30.0156 35.9342 30.0781 36.3806C30.4609 38.7912 30.5234 41.3022 30.2734 43.7797V43.7797ZM31.6953 31.7826C31.4766 31.8831 31.2578 31.9835 31.0313 32.0728C30.4844 29.6399 29.8125 27.2628 29.0391 24.9526C29.7891 22.676 30.4219 20.3323 30.9531 17.9329C31.3594 18.1003 31.75 18.2789 32.125 18.4574C35.7656 20.2431 38.3203 22.8992 38.3203 24.9303C38.3203 27.1177 35.5938 29.9412 31.6953 31.7826ZM20 30.1086C21.9766 30.1086 23.5781 27.8208 23.5781 24.9973C23.5781 22.1738 21.9766 19.8859 20 19.8859C18.0234 19.8859 16.4219 22.1738 16.4219 24.9973C16.4219 27.8208 18.0234 30.1086 20 30.1086Z" fill="#50BBD7"/>
</svg>
