<svg width="70" height="60" viewBox="0 0 51 39" fill="none" xmlns="http://www.w3.org/2000/svg">
<path d="M24.0529 29.4845C24.029 29.5333 24.0051 29.5722 24.0529 29.4845V29.4845ZM43.9056 22.4163C42.3029 22.4158 40.7215 22.7911 39.2837 23.5131C38.8136 22.5463 38.3275 21.7014 38.2478 21.0677C38.1521 20.3284 38.0485 19.8897 38.1601 19.0122C38.2717 18.1348 38.7737 16.8918 38.7657 16.8024C38.7578 16.713 38.6542 16.2662 37.6262 16.2581C36.5982 16.25 35.7137 16.4612 35.6109 16.7374C35.4293 17.2422 35.2881 17.7612 35.1885 18.2892C35.0052 19.2397 33.1334 22.6357 32.0735 24.4068C31.7229 23.7162 31.428 23.1069 31.3643 22.6194C31.2687 21.8801 31.1651 21.4414 31.2766 20.564C31.3882 19.6866 31.8902 18.4435 31.8823 18.3542C31.8743 18.2648 31.7707 17.818 30.7435 17.8098C29.7163 17.8017 28.831 18.0129 28.7274 18.2892C28.6238 18.5654 28.5122 19.2153 28.305 19.8409C28.0979 20.4665 25.6044 26.121 24.9518 27.5915C24.6171 28.339 24.3302 28.9402 24.123 29.3464C24.0911 29.4114 24.0672 29.452 24.0513 29.4845C24.0752 29.4439 24.0911 29.4033 24.0911 29.4195C23.9158 29.7689 23.8122 29.9638 23.8122 29.9638V29.972C23.6767 30.2319 23.5253 30.4675 23.4536 30.4675C23.4058 30.4675 23.3022 29.7851 23.4775 28.8508C23.8521 26.8847 24.7366 23.83 24.7286 23.7243C24.7207 23.6675 24.896 23.1394 24.1469 22.855C23.4217 22.5869 23.1588 23.0338 23.095 23.0338C23.0313 23.0338 22.9835 23.1963 22.9835 23.1963C22.9835 23.1963 23.7883 19.7515 21.4383 19.7515C19.972 19.7515 17.932 21.3927 16.9295 22.8794C16.3 23.2288 14.9373 23.9843 13.5029 24.7886C12.9531 25.0974 12.3873 25.4142 11.8534 25.7148C11.8135 25.6742 11.7817 25.6336 11.7418 25.5929C8.88976 22.4894 3.62395 20.2959 3.84707 16.1281C3.92676 14.6088 4.44474 10.6198 13.9731 5.77768C21.7825 1.81301 28.0261 2.90167 29.1011 5.32272C30.6471 8.77557 25.763 15.2019 17.6531 16.1281C14.562 16.4774 12.9371 15.2588 12.5307 14.8038C12.1084 14.3245 12.0446 14.3001 11.8852 14.3895C11.6223 14.5357 11.7896 14.9582 11.8852 15.21C12.1243 15.8519 13.1204 16.9893 14.817 17.558C16.3072 18.0536 19.9314 18.3298 24.3135 16.5993C29.2366 14.6657 33.0688 9.27927 31.9452 4.77027C30.8009 0.18814 23.3484 -1.31486 16.3016 1.23618C12.1028 2.75543 7.56215 5.14399 4.29572 8.25561C0.41569 11.9603 -0.205083 15.1857 0.0499198 16.5343C0.957571 21.3195 7.42668 24.4393 10.0158 26.7466C9.88825 26.8197 9.76872 26.8847 9.65716 26.9497C8.35903 27.6078 3.42712 30.2401 2.19274 33.0186C0.798194 36.1708 2.42384 38.4294 3.49087 38.7381C6.82105 39.6805 10.2309 37.9826 12.063 35.1959C13.895 32.4093 13.6727 28.7696 12.828 27.1122C12.82 27.0878 12.8041 27.0716 12.7961 27.0472C13.1308 26.8441 13.4734 26.641 13.8161 26.4379C14.4767 26.0398 15.1222 25.6742 15.688 25.3573C15.3692 26.2348 15.1381 27.2909 15.0186 28.8183C14.8752 30.6057 15.6003 32.9211 16.5406 33.831C16.955 34.2291 17.4563 34.2372 17.767 34.2372C18.8667 34.2372 19.3608 33.3111 19.9099 32.2062C20.5872 30.8575 21.1849 29.2895 21.1849 29.2895C21.1849 29.2895 20.4358 33.5304 22.4838 33.5304C23.2321 33.5304 23.9812 32.5474 24.3166 32.0437V32.0518C24.3166 32.0518 24.3326 32.0193 24.3724 31.9543C24.4521 31.8324 24.492 31.7593 24.492 31.7593V31.7349C24.7948 31.2069 25.4562 29.9963 26.4515 27.9977C27.7424 25.4142 28.9768 22.1888 28.9768 22.1888C29.0961 22.8979 29.2611 23.5981 29.4709 24.2849C29.694 25.0567 30.1642 25.9017 30.5387 26.7222C30.2359 27.1447 30.0526 27.3884 30.0526 27.3884C30.0532 27.3947 30.056 27.4005 30.0606 27.4047C29.8215 27.7296 29.5506 28.079 29.2717 28.4202C28.2525 29.6551 27.0404 31.0688 26.881 31.475C26.6898 31.9543 26.7376 32.3118 27.1041 32.588C27.3751 32.7992 27.8532 32.8317 28.3545 32.7911C29.2709 32.7261 29.9163 32.4986 30.2271 32.3524C30.8001 32.1429 31.3416 31.8531 31.836 31.4912C32.8321 30.7438 33.4378 29.6714 33.382 28.2577C33.3501 27.4778 33.1031 26.6979 32.8003 25.9667C32.8879 25.8367 32.9836 25.6986 33.0712 25.5604C34.6482 23.2125 35.8675 20.6355 35.8675 20.6355C35.9868 21.3445 36.1518 22.0447 36.3615 22.7316C36.5528 23.3896 36.9265 24.1127 37.2692 24.8195C35.7878 26.0463 34.8714 27.468 34.5526 28.4023C33.9629 30.1328 34.4251 30.9128 35.2937 31.0915C35.6842 31.1727 36.242 30.9859 36.6564 30.8071C37.2718 30.5982 37.8521 30.294 38.3769 29.9053C39.373 29.1579 40.3364 28.1099 40.2727 26.6881C40.2487 26.0463 40.0734 25.4045 39.8423 24.787C41.0934 24.2508 42.7183 23.9583 44.7902 24.2021C49.2272 24.7301 50.0958 27.5574 49.9285 28.7354C49.7612 29.9135 48.8288 30.5715 48.518 30.7665C48.2072 30.9615 48.1116 31.0346 48.1355 31.1809C48.1754 31.3921 48.3188 31.384 48.5818 31.3352C48.9483 31.2702 50.9079 30.3766 50.9955 28.1911C51.123 25.4288 48.518 22.3903 43.9033 22.4147L43.9056 22.4163ZM9.70497 34.1722C8.2395 35.8052 6.18354 36.4227 5.29979 35.9027C4.3515 35.3405 4.72604 32.9373 6.53417 31.1971C7.63387 30.1409 9.05152 29.166 9.99185 28.5648C10.207 28.4348 10.5178 28.2399 10.9003 28.0042C10.964 27.9636 10.9959 27.9474 10.9959 27.9474C11.0676 27.8986 11.1473 27.858 11.227 27.8093C11.8876 30.2791 11.2509 32.4564 9.70497 34.1706V34.1722ZM20.4119 26.7466C19.9019 28.0221 18.8269 31.2719 18.1735 31.1012C17.6156 30.955 17.273 28.4771 18.0619 26.0398C18.4603 24.813 19.305 23.3506 19.8071 22.7819C20.6111 21.8639 21.4957 21.5714 21.7029 21.937C21.9818 22.4163 20.7307 25.9504 20.4119 26.7466ZM29.2573 31.0525C29.0422 31.1662 28.8429 31.2394 28.7473 31.1825C28.6756 31.1419 28.835 30.9875 28.835 30.9875C28.835 30.9875 29.9426 29.777 30.3809 29.2245C30.6359 28.8996 30.9308 28.5177 31.2487 28.0952C31.2487 28.1359 31.2567 28.1765 31.2567 28.2252C31.2463 29.6795 29.8765 30.6625 29.2549 31.0525H29.2573ZM36.0771 29.4683C35.9177 29.3545 35.9416 28.9727 36.4755 27.7865C36.6827 27.3234 37.16 26.5435 37.9896 25.7961C38.0835 26.079 38.1345 26.3749 38.141 26.6735C38.133 28.5015 36.85 29.1839 36.0779 29.4683H36.0771Z" fill="#C76494"/>
</svg>
