<svg width="284" height="150" viewBox="0 0 284 150" fill="none" xmlns="http://www.w3.org/2000/svg">
<g clip-path="url(#clip0)">
<path d="M13.2837 149.569L13.3426 149.261C13.3557 149.193 14.6963 142.451 19.7219 138.539C24.7477 134.627 31.6745 134.933 31.7437 134.937L32.0596 134.953L32.0007 135.26C31.9876 135.328 30.6469 142.07 25.6214 145.982C20.5956 149.895 13.6688 149.589 13.5995 149.585L13.2837 149.569ZM20.0627 138.969C15.8135 142.277 14.2835 147.685 13.9561 149.045C15.3673 149.051 21.0355 148.857 25.2806 145.552C29.5251 142.248 31.0585 136.837 31.3871 135.476C29.9752 135.47 24.3075 135.665 20.0627 138.969Z" fill="#F1F1F1"/>
<path d="M22.0609 140.468C19.7587 146.345 13.6981 149.495 13.6981 149.495C13.6981 149.495 11.3701 143.117 13.6723 137.24C15.9746 131.363 22.0352 128.213 22.0352 128.213C22.0352 128.213 24.3632 134.591 22.0609 140.468Z" fill="#F1F1F1"/>
<path d="M275.664 149.585C275.594 149.589 268.668 149.895 263.642 145.982C258.616 142.07 257.276 135.328 257.263 135.26L257.204 134.953L257.519 134.937C257.589 134.933 264.515 134.627 269.541 138.539C274.567 142.451 275.908 149.193 275.921 149.261L275.979 149.569L275.664 149.585ZM257.876 135.476C258.205 136.837 259.738 142.248 263.983 145.552C268.228 148.857 273.896 149.051 275.307 149.045C274.98 147.685 273.45 142.277 269.2 138.969C264.956 135.665 259.288 135.47 257.876 135.476H257.876Z" fill="#F1F1F1"/>
<path d="M267.201 140.468C269.503 146.345 275.564 149.495 275.564 149.495C275.564 149.495 277.892 143.117 275.59 137.24C273.287 131.363 267.227 128.213 267.227 128.213C267.227 128.213 264.899 134.591 267.201 140.468Z" fill="#F1F1F1"/>
<path d="M162.775 148.163L158.75 146.483L155.989 126.485H119.217L116.224 146.402L112.623 148.186C112.451 148.271 112.313 148.412 112.231 148.585C112.149 148.758 112.129 148.953 112.173 149.139C112.218 149.325 112.324 149.49 112.475 149.609C112.626 149.727 112.813 149.792 113.006 149.792H162.443C162.641 149.792 162.832 149.724 162.985 149.6C163.138 149.476 163.243 149.304 163.282 149.112C163.321 148.92 163.292 148.721 163.199 148.548C163.107 148.375 162.957 148.239 162.775 148.163V148.163Z" fill="#E6E6E6"/>
<path d="M228.121 129.145H47.4891C46.5414 129.143 45.6332 128.769 44.9638 128.104C44.2944 127.439 43.9185 126.538 43.9185 125.599V100.355H231.691V125.599C231.691 126.538 231.315 127.439 230.646 128.104C229.977 128.769 229.068 129.143 228.121 129.145Z" fill="#CCCCCC"/>
<path d="M231.88 112.287H43.7539V4.27535C43.7552 3.14183 44.2102 2.05512 45.0189 1.25361C45.8277 0.45211 46.9243 0.00127052 48.068 0H227.566C228.71 0.00126977 229.807 0.452107 230.615 1.25361C231.424 2.05511 231.879 3.14183 231.88 4.27535V112.287Z" fill="#292929"/>
<path d="M220.644 104.448H54.9894C54.1077 104.447 53.2623 104.099 52.6388 103.481C52.0153 102.863 51.6646 102.026 51.6636 101.152V11.1361C51.6646 10.2622 52.0153 9.42434 52.6388 8.8064C53.2623 8.18845 54.1077 7.84085 54.9894 7.83984H220.644C221.526 7.84085 222.371 8.18845 222.995 8.8064C223.618 9.42434 223.969 10.2622 223.97 11.1361V101.152C223.969 102.026 223.618 102.863 222.994 103.481C222.371 104.099 221.526 104.447 220.644 104.448V104.448Z" fill="white"/>
<path d="M283.579 150H0.437999C0.342647 150.002 0.249303 149.972 0.172512 149.916C0.0957207 149.86 0.0397942 149.781 0.0134471 149.69C-0.00300169 149.628 -0.00491623 149.563 0.00784904 149.501C0.0206143 149.438 0.0477181 149.379 0.0870784 149.328C0.126439 149.278 0.177004 149.237 0.234884 149.208C0.292764 149.18 0.356415 149.165 0.420939 149.165H283.544C283.645 149.162 283.744 149.192 283.825 149.251C283.906 149.311 283.964 149.395 283.99 149.492C284.004 149.553 284.004 149.616 283.989 149.677C283.975 149.738 283.947 149.795 283.908 149.843C283.868 149.892 283.818 149.932 283.761 149.959C283.704 149.986 283.642 150 283.579 150Z" fill="#CCCCCC"/>
<path d="M87.8261 41.8818H60.5708V44.4185H87.8261V41.8818Z" fill="#E5E5E5"/>
<path d="M87.8261 48.0342H60.5708V50.5709H87.8261V48.0342Z" fill="#E5E5E5"/>
<path d="M87.8261 54.3213H60.5708V56.858H87.8261V54.3213Z" fill="#E5E5E5"/>
<path d="M87.8261 60.6094H60.5708V63.1461H87.8261V60.6094Z" fill="#E5E5E5"/>
<path d="M81.3699 68.5986H67.0259V70.8H81.3699V68.5986Z" fill="#EE4266"/>
<path d="M130.235 57.6152H129.976V58.3901H130.235V57.6152Z" fill="#E5E5E5"/>
<path d="M130.235 74.8995H129.976V73.2485H130.235V74.8995ZM130.235 71.5976H129.976V69.9466H130.235V71.5976ZM130.235 68.2957H129.976V66.6448H130.235V68.2957ZM130.235 64.9938H129.976V63.3429H130.235V64.9938ZM130.235 61.692H129.976V60.041H130.235V61.692Z" fill="#E5E5E5"/>
<path d="M130.235 76.5508H129.976V77.3256H130.235V76.5508Z" fill="#E5E5E5"/>
<path d="M158.773 57.6152H158.513V58.3901H158.773V57.6152Z" fill="#E5E5E5"/>
<path d="M158.773 74.8995H158.513V73.2485H158.773V74.8995ZM158.773 71.5976H158.513V69.9466H158.773V71.5976ZM158.773 68.2957H158.513V66.6448H158.773V68.2957ZM158.773 64.9938H158.513V63.3429H158.773V64.9938ZM158.773 61.692H158.513V60.041H158.773V61.692Z" fill="#E5E5E5"/>
<path d="M158.773 76.5508H158.513V77.3256H158.773V76.5508Z" fill="#E5E5E5"/>
<path d="M173.168 42.457H172.908V43.2319H173.168V42.457Z" fill="#E5E5E5"/>
<path d="M173.168 74.9635H172.908V73.377H173.168V74.9635ZM173.168 71.7904H172.908V70.2038H173.168V71.7904ZM173.168 68.6172H172.908V67.0306H173.168V68.6172ZM173.168 65.444H172.908V63.8574H173.168V65.444ZM173.168 62.2709H172.908V60.6842H173.168V62.2709ZM173.168 59.0976H172.908V57.5111H173.168V59.0976ZM173.168 55.9245H172.908V54.3379H173.168V55.9245ZM173.168 52.7513H172.908V51.1647H173.168V52.7513ZM173.168 49.5781H172.908V47.9915H173.168V49.5781ZM173.168 46.4049H172.908V44.8184H173.168V46.4049Z" fill="#E5E5E5"/>
<path d="M173.168 76.5508H172.908V77.3256H173.168V76.5508Z" fill="#E5E5E5"/>
<path d="M187.42 36.2578H187.16V37.0327H187.42V36.2578Z" fill="#E5E5E5"/>
<path d="M187.42 74.97H187.16V73.3893H187.42V74.97ZM187.42 71.8086H187.16V70.2279H187.42V71.8086ZM187.42 68.6473H187.16V67.0665H187.42V68.6473ZM187.42 65.4859H187.16V63.9052H187.42V65.4859ZM187.42 62.3245H187.16V60.7438H187.42V62.3245ZM187.42 59.1632H187.16V57.5824H187.42V59.1632ZM187.42 56.0018H187.16V54.4211H187.42V56.0018ZM187.42 52.8404H187.16V51.2597H187.42V52.8404ZM187.42 49.6791H187.16V48.0984H187.42V49.6791ZM187.42 46.5177H187.16V44.937H187.42V46.5177ZM187.42 43.3563H187.16V41.7756H187.42V43.3563ZM187.42 40.195H187.16V38.6143H187.42V40.195Z" fill="#E5E5E5"/>
<path d="M187.42 76.5508H187.16V77.3256H187.42V76.5508Z" fill="#E5E5E5"/>
<path d="M144.57 47.2354H144.31V48.0102H144.57V47.2354Z" fill="#E5E5E5"/>
<path d="M144.57 75.0476H144.31V73.5455H144.57V75.0476ZM144.57 72.0434H144.31V70.5413H144.57V72.0434ZM144.57 69.0392H144.31V67.5371H144.57V69.0392ZM144.57 66.0349H144.31V64.5329H144.57V66.0349ZM144.57 63.0307H144.31V61.5286H144.57V63.0307ZM144.57 60.0265H144.31V58.5244H144.57V60.0265ZM144.57 57.0223H144.31V55.5202H144.57V57.0223ZM144.57 54.018H144.31V52.516H144.57V54.018ZM144.57 51.0138H144.31V49.5117H144.57V51.0138Z" fill="#E5E5E5"/>
<path d="M144.57 76.5508H144.31V77.3256H144.57V76.5508Z" fill="#E5E5E5"/>
<path d="M201.875 77.6846H115.596C115.525 77.6846 115.456 77.6564 115.405 77.6063C115.355 77.5561 115.326 77.488 115.326 77.417V36.4336C115.326 36.3626 115.355 36.2946 115.405 36.2444C115.456 36.1942 115.525 36.166 115.596 36.166C115.668 36.166 115.736 36.1942 115.787 36.2444C115.838 36.2946 115.866 36.3626 115.866 36.4336V77.1494H201.875C201.947 77.1494 202.016 77.1776 202.066 77.2278C202.117 77.278 202.145 77.3461 202.145 77.417C202.145 77.488 202.117 77.5561 202.066 77.6063C202.016 77.6564 201.947 77.6846 201.875 77.6846V77.6846Z" fill="#3F3D56"/>
<path d="M158.762 57.9749L144.417 47.3266L130.268 57.8294L129.944 57.401L144.417 46.6579L158.694 57.2556L172.881 41.8692L172.938 41.8462L187.248 36.1318L187.45 36.6286L173.197 42.32L158.762 57.9749Z" fill="#3F3D56"/>
<path d="M130.107 59.2199C131.002 59.2199 131.727 58.5011 131.727 57.6144C131.727 56.7276 131.002 56.0088 130.107 56.0088C129.212 56.0088 128.487 56.7276 128.487 57.6144C128.487 58.5011 129.212 59.2199 130.107 59.2199Z" fill="#EE4266"/>
<path d="M144.417 48.7844C145.312 48.7844 146.037 48.0656 146.037 47.1788C146.037 46.2921 145.312 45.5732 144.417 45.5732C143.522 45.5732 142.797 46.2921 142.797 47.1788C142.797 48.0656 143.522 48.7844 144.417 48.7844Z" fill="#EE4266"/>
<path d="M158.728 59.2199C159.623 59.2199 160.348 58.5011 160.348 57.6144C160.348 56.7276 159.623 56.0088 158.728 56.0088C157.833 56.0088 157.108 56.7276 157.108 57.6144C157.108 58.5011 157.833 59.2199 158.728 59.2199Z" fill="#EE4266"/>
<path d="M173.039 43.6994C173.933 43.6994 174.659 42.9806 174.659 42.0939C174.659 41.2071 173.933 40.4883 173.039 40.4883C172.144 40.4883 171.418 41.2071 171.418 42.0939C171.418 42.9806 172.144 43.6994 173.039 43.6994Z" fill="#EE4266"/>
<path d="M187.349 37.8127C188.244 37.8127 188.969 37.0939 188.969 36.2071C188.969 35.3204 188.244 34.6016 187.349 34.6016C186.454 34.6016 185.729 35.3204 185.729 36.2071C185.729 37.0939 186.454 37.8127 187.349 37.8127Z" fill="#EE4266"/>
<path d="M96.3447 7.83887H95.793V104.447H96.3447V7.83887Z" fill="#E5E5E5"/>
<path d="M226.405 103.458C226.596 103.234 226.734 102.97 226.811 102.686C226.888 102.403 226.901 102.106 226.849 101.817C226.798 101.528 226.683 101.254 226.513 101.013C226.342 100.773 226.121 100.573 225.864 100.426L227.211 93.416L223.757 94.8425L223.008 101.281C222.788 101.725 222.741 102.233 222.874 102.709C223.007 103.185 223.312 103.597 223.731 103.865C224.149 104.133 224.653 104.24 225.146 104.165C225.639 104.09 226.087 103.839 226.405 103.458V103.458Z" fill="#FFB7B7"/>
<path d="M243.627 146.473H240.702L239.311 135.294L243.627 135.294L243.627 146.473Z" fill="#FFB7B7"/>
<path d="M244.372 149.283L234.942 149.283V149.165C234.942 148.2 235.329 147.275 236.017 146.593C236.706 145.911 237.639 145.527 238.613 145.527H238.613L244.372 145.528L244.372 149.283Z" fill="#2F2E41"/>
<path d="M227.644 146.473H224.719L223.328 135.294L227.645 135.294L227.644 146.473Z" fill="#FFB7B7"/>
<path d="M227.674 149.283L218.244 149.283V149.165C218.244 148.2 218.631 147.275 219.319 146.593C220.008 145.911 220.941 145.527 221.915 145.527H221.915L227.674 145.528L227.674 149.283Z" fill="#2F2E41"/>
<path d="M227.404 99.2588L224.542 105.794L222.18 143.36L228.144 143.123L229.773 125.216L234.797 109.266L237.686 127.047L238.878 142.65L243.813 142.862L245.779 99.2588H227.404Z" fill="#2F2E41"/>
<path d="M241.713 67.0078L233.416 67.2135L228.545 69.6916L228.278 87.9749L225.24 100.598C225.24 100.598 244.221 101.893 246.845 100.001L243.744 85.5805L247.904 69.9955L241.713 67.0078Z" fill="#EE4266"/>
<path d="M229.433 69.9782L228.546 69.6924C228.546 69.6924 225.735 71.4804 226.003 75.8033C226.003 75.8033 225.897 78.0403 225.998 79.5291C226.113 81.2367 222.658 98.2054 222.658 98.2054H227.668L229.815 82.8388L229.433 69.9782Z" fill="#EE4266"/>
<path d="M247.774 103.695C247.583 103.47 247.445 103.206 247.368 102.923C247.292 102.639 247.279 102.342 247.33 102.053C247.382 101.764 247.497 101.49 247.667 101.25C247.837 101.009 248.058 100.809 248.315 100.662L246.968 93.6523L250.422 95.0788L251.171 101.517C251.391 101.961 251.439 102.469 251.306 102.945C251.172 103.422 250.867 103.833 250.449 104.101C250.03 104.37 249.526 104.477 249.033 104.402C248.54 104.327 248.092 104.075 247.774 103.695V103.695Z" fill="#FFB7B7"/>
<path d="M246.655 70.2135L247.541 69.9277C247.541 69.9277 250.353 71.7158 250.085 76.0387C250.085 76.0387 250.19 78.2756 250.09 79.7644C249.974 81.472 251.521 98.4407 251.521 98.4407H246.512L244.365 83.0741L246.655 70.2135Z" fill="#EE4266"/>
<path d="M243.75 59.3375C243.75 60.4649 243.413 61.5669 242.781 62.5042C242.149 63.4415 241.251 64.1721 240.2 64.6035C239.149 65.0349 237.992 65.1478 236.877 64.9279C235.761 64.7079 234.736 64.1651 233.932 63.3679C233.128 62.5708 232.58 61.5552 232.358 60.4495C232.136 59.3439 232.25 58.1978 232.685 57.1563C233.121 56.1148 233.858 55.2246 234.804 54.5983C235.749 53.972 236.861 53.6377 237.999 53.6377V53.6377C238.752 53.6358 239.499 53.7811 240.195 54.0651C240.892 54.3491 241.526 54.7663 242.06 55.293C242.594 55.8196 243.018 56.4453 243.308 57.1344C243.598 57.8235 243.748 58.5625 243.75 59.3091C243.75 59.3186 243.75 59.3281 243.75 59.3375Z" fill="#FFB7B7"/>
<path d="M232.266 51.6819C232.94 50.2461 234.244 50.53 235.384 51.0166C236.828 50.6992 238.201 49.7489 239.757 50.3109C241.29 52.5199 246.435 51.87 245.341 55.4663C245.339 56.3281 246.977 55.8265 246.691 57.2378C247.558 59.954 243.56 65.0979 241.264 64.0147C241.832 62.9835 243.129 60.6412 241.161 60.4089C236.93 64.311 240.725 52.9785 235.408 56.2742C233.648 57.8708 231.237 53.2789 232.266 51.6819Z" fill="#2F2E41"/>
</g>
<defs>
<clipPath id="clip0">
<rect width="284" height="150" fill="white"/>
</clipPath>
</defs>
</svg>
