<svg width="335" height="152" viewBox="0 0 335 152" fill="none" xmlns="http://www.w3.org/2000/svg">
<path d="M335 3.16309H134.099V57.912H335V3.16309Z" fill="#E6E6E6"/>
<path d="M329.255 7.8584H139.843V53.5371H329.255V7.8584Z" fill="white"/>
<path d="M334.914 0H134.013V4.90161H334.914V0Z" fill="#EE4266"/>
<path d="M140.355 3.79062C141.229 3.79062 141.937 3.38388 141.937 2.88213C141.937 2.38038 141.229 1.97363 140.355 1.97363C139.482 1.97363 138.773 2.38038 138.773 2.88213C138.773 3.38388 139.482 3.79062 140.355 3.79062Z" fill="white"/>
<path d="M146.36 3.79062C147.233 3.79062 147.942 3.38388 147.942 2.88213C147.942 2.38038 147.233 1.97363 146.36 1.97363C145.486 1.97363 144.778 2.38038 144.778 2.88213C144.778 3.38388 145.486 3.79062 146.36 3.79062Z" fill="white"/>
<path d="M152.365 3.79062C153.238 3.79062 153.947 3.38388 153.947 2.88213C153.947 2.38038 153.238 1.97363 152.365 1.97363C151.491 1.97363 150.783 2.38038 150.783 2.88213C150.783 3.38388 151.491 3.79062 152.365 3.79062Z" fill="white"/>
<path d="M284.664 15.249H253.172V46.1453H284.664V15.249Z" fill="#EE4266"/>
<path d="M247.954 15.249H184.435V23.7536H247.954V15.249Z" fill="#EE4266"/>
<path d="M247.954 26.1221H184.435V35.2725H247.954V26.1221Z" fill="#EE4266"/>
<path d="M247.954 37.6406H184.435V46.1452H247.954V37.6406Z" fill="#EE4266"/>
<path d="M95.8502 91.3539C95.8563 90.7276 95.6318 90.1075 95.1916 89.5345C94.7514 88.9614 94.1054 88.4483 93.2958 88.0286C92.4862 87.6089 91.5313 87.2922 90.4937 87.0993C89.4562 86.9063 88.3593 86.8414 87.275 86.9088C86.932 86.9311 86.592 86.9671 86.2577 87.0165L60.0578 74.1191L61.6235 69.2726L48.71 66.8691L44.8165 74.636C44.3559 75.5682 44.4309 76.5608 45.0304 77.4665C45.6299 78.3722 46.722 79.1428 48.1444 79.6638L80.3748 91.3711C80.375 91.5167 80.3882 91.6622 80.4144 91.807C80.5321 92.4298 80.8776 93.0312 81.4282 93.5719C81.9789 94.1127 82.7222 94.5804 83.6096 94.9447C84.497 95.3089 85.5084 95.5613 86.5775 95.6854C87.6466 95.8095 88.7493 95.8024 89.8134 95.6647C90.1227 95.6253 90.4273 95.5748 90.7255 95.5135C92.2172 95.2037 93.508 94.639 94.4242 93.8954C95.3404 93.1518 95.838 92.2648 95.8502 91.3539V91.3539Z" fill="#9F616A"/>
<path d="M30.7141 106.312H64.4942C64.4942 106.87 99.3089 107.323 99.3089 107.323C99.8553 107.559 100.353 107.83 100.793 108.131C102.116 109.037 102.839 110.182 102.834 111.364V112.172C102.833 113.511 101.906 114.796 100.257 115.743C98.608 116.69 96.3714 117.222 94.0391 117.223H30.7141C28.3821 117.222 26.1462 116.689 24.4972 115.742C22.8482 114.795 21.921 113.511 21.9189 112.172V111.364C21.9222 110.025 22.8498 108.741 24.4985 107.794C26.1473 106.847 28.3825 106.314 30.7141 106.312V106.312Z" fill="#292929"/>
<path d="M67.4594 117.021H58.3125V150.965H67.4594V117.021Z" fill="#292929"/>
<path d="M93.4925 151.387C93.4925 152.023 79.6317 151.633 62.5336 151.633C45.4355 151.633 31.5747 152.023 31.5747 151.387C31.5747 150.752 45.4355 145.712 62.5336 145.712C79.6317 145.712 93.4925 150.752 93.4925 151.387Z" fill="#292929"/>
<path d="M85.2356 146.802L93.8611 146.802L97.965 133.953L85.2339 133.954L85.2356 146.802Z" fill="#9F616A"/>
<path d="M83.0352 151.605L110.849 151.604V151.402C110.849 150.585 110.569 149.777 110.025 149.023C109.481 148.268 108.684 147.583 107.679 147.006C106.673 146.428 105.48 145.97 104.166 145.658C102.853 145.345 101.445 145.185 100.024 145.185H100.023L83.0347 145.185L83.0352 151.605Z" fill="#2F2E41"/>
<path d="M98.1371 138.834L115.334 116.687C116.77 114.821 116.929 112.712 115.779 110.781C114.629 108.85 112.255 107.239 109.129 106.268L71.8283 94.781L54.8071 93.9495L39.1063 93.1299L38.9931 93.24C38.8483 93.3805 35.4724 96.7292 37.7544 100.401C39.4853 103.186 43.9876 105.362 51.1362 106.867C67.8219 110.381 87.0971 113.384 94.6097 114.512C94.9418 114.56 95.252 114.649 95.5202 114.772C95.7883 114.894 96.0083 115.048 96.1655 115.223C96.3232 115.396 96.4169 115.585 96.4407 115.78C96.4644 115.975 96.4178 116.17 96.3037 116.354L80.3271 136.968C80.1603 137.23 80.1002 137.509 80.1515 137.786C80.2029 138.063 80.3642 138.33 80.6232 138.565C80.8822 138.8 81.2318 138.999 81.6452 139.144C82.0586 139.29 82.5246 139.379 83.0074 139.404L94.9453 139.904C95.0466 139.909 95.1475 139.912 95.2479 139.912C95.8593 139.912 96.4576 139.81 96.9703 139.619C97.483 139.427 97.8883 139.155 98.1371 138.834V138.834Z" fill="#F2F2F2"/>
<path d="M79.6068 146.802L88.2323 146.802L92.3367 133.953L79.6055 133.954L79.6068 146.802Z" fill="#9F616A"/>
<path d="M77.4063 151.605L105.22 151.604V151.402C105.22 150.585 104.94 149.777 104.396 149.023C103.852 148.268 103.055 147.583 102.05 147.006C101.044 146.428 99.851 145.97 98.5376 145.658C97.2241 145.345 95.8164 145.185 94.3947 145.185H94.3936L77.4058 145.185L77.4063 151.605Z" fill="#2F2E41"/>
<path d="M91.8046 140.046L109.001 117.899C110.437 116.033 110.596 113.924 109.446 111.993C108.296 110.062 105.922 108.451 102.797 107.48L65.4958 95.9931L48.4746 95.1617L36.1769 94.549L36.1786 94.4521C36.0338 94.5926 32.658 97.9413 34.9399 101.613C36.6708 104.398 37.6551 106.574 44.8037 108.079C61.4894 111.593 80.7646 114.596 88.2772 115.724C88.6093 115.773 88.9195 115.861 89.1877 115.984C89.4558 116.106 89.6758 116.26 89.833 116.435C89.9907 116.608 90.0844 116.798 90.1082 116.992C90.1319 117.187 90.0853 117.382 89.9712 117.566L73.9946 138.18C73.8278 138.442 73.7677 138.722 73.819 138.999C73.8704 139.275 74.0318 139.542 74.2907 139.777C74.5497 140.013 74.8993 140.211 75.3127 140.356C75.7261 140.502 76.1921 140.591 76.6749 140.617L88.6128 141.116C88.7141 141.121 88.815 141.124 88.9154 141.124C89.5268 141.124 90.1251 141.022 90.6378 140.831C91.1505 140.64 91.5558 140.367 91.8046 140.046Z" fill="#F2F2F2"/>
<path d="M59.396 94.9535C60.2205 94.6186 72.061 98.1862 74.1718 95.3576C64.3212 81.2146 71.1093 75.1074 65.0754 66.9971C64.0126 65.5982 62.4116 64.3559 60.3926 63.3635C58.3737 62.3711 55.9893 61.6544 53.4187 61.2673L37.7637 60.8135L37.6826 60.836C34.15 61.8297 31.269 63.4508 29.4668 65.4588C27.6647 67.4669 27.0373 69.7551 27.6778 71.984C27.7335 80.8105 36.9292 87.5425 33.7138 93.9445C33.579 94.2122 33.5396 94.4927 33.5981 94.7693C33.6566 95.0459 33.8118 95.3128 34.0543 95.5542C34.2894 95.7874 34.6052 95.9905 34.9822 96.151C35.3592 96.3115 35.7895 96.4259 36.2465 96.4872L56.9175 94.9036C57.4004 94.9696 57.9022 94.9757 58.3896 94.9215C58.8769 94.8674 59.3385 94.7542 59.7437 94.5895L59.396 94.9535Z" fill="#292929"/>
<path d="M42.9884 57.455C52.5327 57.455 60.2699 53.0115 60.2699 47.5302C60.2699 42.0489 52.5327 37.6055 42.9884 37.6055C33.4442 37.6055 25.707 42.0489 25.707 47.5302C25.707 53.0115 33.4442 57.455 42.9884 57.455Z" fill="#9F616A"/>
<path d="M37.4838 56.6404C38.402 56.8711 40.2823 52.6693 39.44 51.8289C38.1874 50.5791 38.2614 50.5881 37.4299 49.7612C36.5984 48.9343 36.4123 47.8026 37.4891 47.075C38.5659 46.3475 41.0578 46.444 41.5493 47.3562C41.2331 45.6235 44.2173 44.2308 47.1732 43.8394C50.1291 43.448 53.2471 43.691 56.2193 43.3427C59.6687 42.9385 63.2576 41.2779 61.8814 39.0995C61.6452 38.7368 61.2916 38.4031 60.8393 38.1159C59.2492 37.0892 57.0249 36.6507 54.8501 36.2268C50.3259 35.3449 45.6778 34.4519 40.9031 34.5493C33.0578 34.7092 25.642 37.8239 22.9988 42.069C22.6697 42.5987 22.4148 43.1426 22.2365 43.6956C20.5976 48.7565 25.7149 53.7484 34.0263 55.6756L37.4838 56.6404Z" fill="#1A1A1A"/>
<path d="M128.111 72.5998L130.092 79.3577C130.115 79.433 130.1 79.5104 130.051 79.5813L114.503 101.892C114.442 101.98 114.329 102.054 114.185 102.1C114.04 102.147 113.872 102.163 113.709 102.147C113.545 102.131 113.397 102.084 113.287 102.012C113.178 101.941 113.114 101.85 113.107 101.755L112.448 92.7893C112.444 92.7297 112.462 92.6703 112.501 92.6151L126.725 72.5123C126.785 72.4284 126.89 72.358 127.025 72.3116C127.161 72.2653 127.319 72.2455 127.476 72.2554C127.632 72.2653 127.779 72.3043 127.894 72.3665C128.008 72.4286 128.085 72.5106 128.111 72.5998V72.5998Z" fill="#292929"/>
<path d="M127.01 73.1191L128.894 78.9249L115.096 99.2838L113.305 92.7347L127.01 73.1191Z" fill="#1A1A1A"/>
<path d="M66.6451 101.788C66.9846 102.549 111.554 103.373 112.016 103.143C112.431 102.848 112.79 102.529 113.088 102.19C113.555 101.711 113.987 101.231 113.987 101.231L113.255 93.1359L69.3511 90.4414C69.3511 90.4414 67.4088 97.1967 66.799 100.3C66.6612 100.792 66.6097 101.291 66.6451 101.788Z" fill="#292929"/>
<path opacity="0.1" d="M107.511 93.9921L107.515 100.966L88.0967 100.173L88.9559 93.2344L107.511 93.9921Z" fill="black"/>
<path opacity="0.1" d="M82.2068 95.2003L82.3242 95.1919L81.4073 98.1567L70.6191 97.7162L70.9875 94.7422L82.2068 95.2003Z" fill="black"/>
<path opacity="0.1" d="M66.6451 101.788C66.9846 102.549 111.554 103.373 112.016 103.143C112.431 102.848 112.79 102.528 113.088 102.19L66.799 100.3C66.6612 100.792 66.6097 101.29 66.6451 101.788Z" fill="black"/>
<path d="M48.7492 89.6996L86.3451 93.729C86.4392 93.8642 86.5453 93.9966 86.663 94.1255C87.1738 94.6775 87.8812 95.1615 88.7391 95.5462C89.5969 95.9309 90.5861 96.2076 91.6424 96.3584C92.7029 96.5115 93.8081 96.5329 94.8841 96.4209C95.9601 96.309 96.982 96.0663 97.8815 95.7092C99.5108 95.0668 100.651 94.0908 101.067 92.9812C101.484 91.8717 101.145 90.7127 100.122 89.7418C99.0981 88.7709 97.4665 88.0616 95.5615 87.7594C93.6565 87.4571 91.6224 87.5848 89.876 88.1163C89.5718 88.21 89.2794 88.3157 89.0007 88.4328L56.3459 82.0263L54.6745 77.1914L41.1294 77.7061L42.5329 85.8111C42.7032 86.757 43.3999 87.6461 44.5197 88.3466C45.6395 89.047 47.1227 89.5215 48.7492 89.6996V89.6996Z" fill="#9F616A"/>
<path d="M40.6706 81.3213L60.3526 77.6063L55.7614 70.0355C55.1518 69.0302 53.943 68.181 52.3486 67.638C50.7543 67.0951 48.8771 66.8932 47.0487 67.0682V67.0682C45.1991 67.2453 43.5207 67.7963 42.3167 68.6218C41.1126 69.4473 40.4622 70.4929 40.4829 71.5697L40.6706 81.3213Z" fill="#292929"/>
<path d="M165.525 152H0.433312C0.318391 152 0.208176 151.973 0.126914 151.927C0.0456521 151.88 0 151.817 0 151.751C0 151.685 0.0456521 151.622 0.126914 151.575C0.208176 151.528 0.318391 151.502 0.433312 151.502H165.525C165.64 151.502 165.75 151.528 165.832 151.575C165.913 151.622 165.959 151.685 165.959 151.751C165.959 151.817 165.913 151.88 165.832 151.927C165.75 151.973 165.64 152 165.525 152Z" fill="#CBCBCB"/>
<path d="M229.745 144.16C237.664 146.513 241.184 151.637 241.184 151.637C241.184 151.637 231.867 152.946 223.949 150.592C216.03 148.239 212.51 143.115 212.51 143.115C212.51 143.115 221.827 141.806 229.745 144.16Z" fill="#F1F1F1"/>
<path d="M227.213 145.855C231.938 150.197 241.116 151.798 241.116 151.798C241.116 151.798 242.633 146.358 237.908 142.016C233.183 137.674 224.005 136.073 224.005 136.073C224.005 136.073 222.488 141.513 227.213 145.855Z" fill="#F1F1F1"/>
<path d="M255.654 151.901H206.257C206.142 151.901 206.031 151.875 205.95 151.828C205.869 151.781 205.823 151.718 205.823 151.652C205.823 151.586 205.869 151.523 205.95 151.476C206.031 151.43 206.142 151.403 206.257 151.403H255.654C255.769 151.403 255.879 151.43 255.961 151.476C256.042 151.523 256.087 151.586 256.087 151.652C256.087 151.718 256.042 151.781 255.961 151.828C255.879 151.875 255.769 151.901 255.654 151.901Z" fill="#CBCBCB"/>
</svg>
